<svg xmlns="http://www.w3.org/2000/svg" width="1176.606" height="873.979"><path d="M1083.967 212.452C950.424 26.622 668.322-48.76 390.883 32.428 244.2 75.35 102.8 161.348 32.705 327.87-92.578 625.544 170.47 720.614 342.475 750.914c83.172 14.65 161.507 39.263 233.09 72.77 128.783 60.284 356.74 113.702 528.632-137.41 124.59-182.006 68.722-350.042-20.23-473.823z" fill="#f2f2f2"/><g fill="#3f3d56"><path d="M309.732 249.217a34.436 34.436 0 00-2.248-8.605 3.9 3.9 0 00-1.98-2.44 4.08 4.08 0 00-1.965-.022l-10.087 1.543a3.88 3.88 0 00-2.302.894c-1.314 1.382-.02 3.607-.06 5.513-.045 2.143-1.95 3.883-4.015 4.46-2.108.426-4.283.4-6.38-.08l-14.105-2.192a23.255 23.255 0 0010.67-7.12c1.856-2.2 2.844-6.304.16-7.345a6.575 6.575 0 00-2.45-.197c-6.4.05-11.42-5.286-17.402-7.533a19.24 19.24 0 00-21.655 6.455l7.514.362a3.32 3.32 0 012 .534c1.647 1.353-.4 3.952-.17 6.07.3 2.752 3.956 3.34 6.7 3.62s6.25 2.517 4.925 4.948c-13.847 4.77-27.937-9.323-42.48-7.588-3.68.44-7.156 1.885-10.75 2.794-21.95 5.554-44.644-9.264-67.068-6.126a85.26 85.26 0 00-14.64 3.86c-3.052 1.002-6.235 2.085-8.453 4.4s-3.06 6.298-.96 8.73c-5.8.477-11.62-.077-17.216-1.636a9.65 9.65 0 014.96 8.5 102.1 102.1 0 00-26.167 7.98 44.23 44.23 0 005.416 7.215l-11.445 7.353c3.867.974 5.866 6.247 3.617 9.54 4-1.784 6.494-6.398 10.782-7.333 2.8-.613 5.667.536 8.33 1.616s5.593 2.126 8.352 1.316 4.793-4.387 3.04-6.666a142.72 142.72 0 0136.253-5.664 4.544 4.544 0 012.746.52c1.598 1.1 1.178 3.504 1.092 5.447s1.43 4.497 3.165 3.62c-2.043 1.772-.297 5.108 1.664 6.97s4.323 4.434 3.123 6.858c-.313.633-.845 1.14-1.146 1.777-.9 1.884.523 4.08 2.2 5.332s3.707 2.126 4.864 3.858.632 4.765-1.438 5.007l-5.882-7.47a15.393 15.393 0 00-3.974 7.53c6.238 5.1 7.176 15.478 1.954 21.613-2.67 3.135-6.464 5.04-9.776 7.486s-6.377 5.928-6.37 10.045c.014 7.113-.567 13.72 2.1 20.316a313.04 313.04 0 0017 35.447c1.68 3.006 3.853 6.3 7.258 6.82q-6.455-15.714-11.62-31.917c2.243.01 4.836.187 6.15 2.004 1.1 1.505.855 3.55 1.193 5.378a16.66 16.66 0 002.124 4.994l20.55 36.605c1.704 3.034 3.658 6.292 6.913 7.52 2.082.786 4.5.638 6.406 1.77 1.502.887 2.513 2.46 4.044 3.296 4.33 2.36 10.35-2.167 14.394.652 1.157.806 1.893 2.087 2.958 3 3.736 3.236 9.865 1.07 14.18 3.485 2.78 1.556 4.22 4.667 5.703 7.486 3.714 7.062 9.723 13.98 17.683 14.543 2.5.177 5.054-.297 7.498.26s4.85 2.7 4.457 5.164c-.673 4.244 1.424 8.9.86 13.15-1.026 7.76-12.032 11.17-12.978 18.94-.207 1.7.117 3.457-.288 5.122-.496 2.04-2.03 3.702-2.574 5.73-1.032 3.844 1.722 7.67 4.748 10.256s6.635 4.816 8.3 8.437c1.748 3.827.9 8.3 1.458 12.457 1.24 9.1 9.102 15.847 17.2 20.197 2.465 1.325 5.1 2.608 6.706 4.908 2.082 3 1.875 6.957 2.57 10.543 1.703 8.782 9.095 16.017 9.305 24.96.15 6.356-3.384 12.122-5.495 18.12a42.26 42.26 0 003.45 35.046c1.58 2.666 3.467 5.18 4.584 8.07 1.993 5.158 1.346 11.02 3.184 16.235 2.43 6.895 9.106 12.6 8.467 19.872 3.03 6.294 9.724 9.387 16.454 11.26l12.062 3.358c2.3.643 4.723 1.3 7.074.825s4.596-2.418 4.535-4.815c-5.915-1.334-12.02-2.752-16.895-6.357s-8.216-10.023-6.366-15.797c.858-2.678 2.683-5.77.948-7.982-.993-1.267-2.8-1.598-3.93-2.753-1.748-1.803-1.147-4.83.1-7.005s3.073-4.116 3.58-6.576a6.86 6.86 0 00-3.216-7.138 17.073 17.073 0 005.97-3.83c1.57-1.793 2.295-4.557 1.06-6.595 3.668.465 7.997.693 10.405-2.113 1.923-2.24 1.8-5.6 1.03-8.442s-2.044-5.624-2.084-8.575c8.46.4 16.94.113 25.353-.86a16.44 16.44 0 00-7.708-9.654c3.8-.645 7.282-5.207 8.486-8.88s.897-7.673.153-11.465a6.15 6.15 0 01-.114-3.004c.43-1.368 1.772-2.202 3.015-2.916l18.914-10.863a10.994 10.994 0 003.025-2.233c1.982-2.328 1.688-5.84.673-8.725s-2.64-5.595-3.03-8.627c-1.17-9.068 8.538-15.574 11.813-24.1 1.286-3.35 1.548-7 1.796-10.57.267-3.844.287-8.3-2.665-10.787-2.83-2.375-7.25-1.845-10.2-4.054-2.714-2.025-3.65-5.958-6.616-7.594-2.693-1.486-6.07-.54-9.065-1.24-5.274-1.23-8.592-7.308-13.978-7.87-3.04-.318-6.478 1.168-8.97-.602-2.195-1.56-2.283-4.694-2.7-7.353a20.54 20.54 0 00-16.575-16.628c-3.133-.502-6.544-.312-9.2-2.033-2.7-1.744-3.937-5.008-6.057-7.422-3.417-3.9-8.798-5.274-13.84-6.46l-20.506-4.82c-3.64-.856-8.332-1.3-10.286 1.88a14.74 14.74 0 00-1.217 3.827 11.85 11.85 0 01-11.144 8.388 13.18 13.18 0 00-7.772-6.013c-2.08-.58-4.305-.644-6.288-1.496a8.836 8.836 0 01-4.556-5.3 8.83 8.83 0 01.723-6.952 10.994 10.994 0 00-1.88-13.225c-3.487-3.13-8.532-3.887-13.207-3.574-1.225-2.672.823-5.687 3.03-7.63s4.886-3.85 5.366-6.75c.756-4.56-5.064-8.026-9.483-6.666s-7.24 5.652-9.104 9.883c-1.07 2.428-1.98 4.984-3.667 7.03s-4.405 3.513-6.975 2.856c-3.64-.93-5.044-5.253-5.85-8.92-1.08-4.922-2.167-9.912-1.94-14.946s1.923-10.203 5.635-13.6c6.05-5.553 15.328-5 23.5-4.123-1.93-2.173-1.452-5.835.612-7.88a8.96 8.96 0 018.121-1.995 11.19 11.19 0 016.291 3.762c2.32 2.828 2.98 6.647 4.733 9.857s5.696 5.948 8.923 4.226c2.787-1.488 3.23-5.353 2.536-8.435s-2.167-6.08-1.916-9.23c.48-6 6.7-9.627 12.206-12.102s11.792-5.804 12.663-11.77a10.73 10.73 0 01.652-3.42 6.71 6.71 0 012.461-2.315c16.044-10.603 32.355-21.335 50.692-27.13.954-.3 1.066.034 2.038-.203 1.36-.786.46-2.962-.846-3.838s-3.048-1.55-3.38-3.085c-.243-1.13.422-2.238.595-3.38.425-2.807-2.933-5.4-5.54-4.276-1.473-1.95 1.442-4.217 3.798-4.866a103.15 103.15 0 0121.67-3.54 3.904 3.904 0 012.466.42c1.23.853 1.074 2.808.2 4.025s-2.23 1.98-3.316 3a9.055 9.055 0 00-2.348 9.105c3.826 1.946 7.986 3.95 12.223 3.264s8-5.447 6.007-9.25c-1.855-3.54-7.426-4.34-8.384-8.22-1.122-4.544 5.3-8.585 3.862-13.035-.635-1.95-2.577-3.097-4.068-4.504a12.22 12.22 0 01-2.674-13.552 15.42 15.42 0 01-13.523-4.232c-3.234-3.264-5.815-8.414-10.408-8.267-4.215.134-7.845 5.05-11.786 3.55-.97-.37-1.992-1.12-2.93-.68a2.42 2.42 0 00-1.093 1.815c-1.002 4.788.72 10.244-1.888 14.382-2.84 4.503-9.4 5.127-12.852 9.187-1.87 2.204-2.593 5.174-4.3 7.498s-5.364 3.8-7.425 1.776c2.087-4.3.933-9.45-2.78-12.445a27.31 27.31 0 00-6.141-2.987 36.42 36.42 0 01-6.861-3.824 6.76 6.76 0 01-2.519-2.695 6.14 6.14 0 01.172-4.262 17.426 17.426 0 0113.867-11.494c2.745-.373 5.94-.242 7.756-2.333.96-1.107 1.465-2.78 2.86-3.23a4.22 4.22 0 012.641.325l10.245 3.606a7.19 7.19 0 003.65.604 2.475 2.475 0 002.14-2.6c-.327-1.7-2.945-2.518-2.707-4.234a2.81 2.81 0 01.857-1.44 36.63 36.63 0 0129.051-11.472c1.293 2.124-.752 4.64-2.454 6.452s-3.07 5.052-1 6.448c.843.43 1.78.642 2.728.614a23.82 23.82 0 017.261 2.202q5.3 2.3 10.417 5.057c-.3-2.245-.588-4.6.263-6.708s3.27-3.745 5.38-2.928c2.036.788 3.08 3.483 5.248 3.73 2.893.33 4.034-3.944 2.826-6.593s-3.6-4.867-3.8-7.772c-.135-1.96.6-4.4-.954-5.576a4.26 4.26 0 00-1.847-.648l-39.084-7.192c-2.32-.427-5.674-.1-5.777 2.258-.057 1.316 1.118 2.618.597 3.828-.556 1.3-2.38 1.173-3.7 1.63-2.063.7-3.098 3.158-2.9 5.33a14.91 14.91 0 002.448 6.008c-2.542-1.063-6.4-1.26-8.934-2.322zm-31.185-33.177a12.656 12.656 0 00-13.902 4.164c-.644.847-1.184 2.015-.645 2.933.772 1.315 2.74.796 4.192.325a10.55 10.55 0 016.621-.158c1.363.468 2.58 1.295 3.95 1.745a3.98 3.98 0 004.056-.593c.94-.958.998-2.447 1-3.788.132-.9-.153-1.83-.776-2.504a3.98 3.98 0 00-1.796-.531 6.135 6.135 0 01-3.62-2.115m15.013-3.402a3.22 3.22 0 00-3.112 4.534 13.05 13.05 0 005.203.339 4.471 4.471 0 003.637-3.334 8.37 8.37 0 01-5.928-1.132m47.483-6.96c-4.6.98-9.1 2.5-13.342 4.532a10.024 10.024 0 016.402 10.068c-.18.823-.16 1.676.06 2.5.5 1.188 1.9 1.634 3.158 1.94 2.243.683 4.585.98 6.927.884a7.057 7.057 0 005.734-3.504 24.97 24.97 0 011.192-2.819c2.992-4.557 11.88.953 15.094-3.45 1.132-1.552 1.028-3.887 2.503-5.116a5.62 5.62 0 012.574-.982 180.73 180.73 0 0119.548-2.784c3.1-.27 7.162-1.387 7.188-4.508a54.15 54.15 0 00-34.541 4.647c-3.85 1.93-8.943 5.985-12.652 3.43-1.4-.957-1.32-3.535-3.23-4.612-1.954-1.1-4.54-.653-6.615-.212zm38.3 7.162l5.497 1.056c-2.047-.1-4.034.705-5.453 2.183s-2.133 3.496-1.96 5.537c5.148 1.72 10.76.046 16.184.275s11.733 4.102 10.807 9.45c-.28 1.617-1.214 3.233-.728 4.8.34 1.1 1.3 1.878 1.856 2.9 1.14 2.1.23 4.776-1.2 6.693s-3.374 3.446-4.637 5.483c-3.142 5.067-1.357 11.617.515 17.277a15.23 15.23 0 002.929 5.849c2.773 2.948 7.292 3.205 11.338 3.264 2.945.043 6.32-.103 8.182-2.385 2.432-2.98.73-7.628 2.332-11.125 1.454-3.176 5.16-4.538 8.515-5.504 6.15-1.77 12.416-3.275 18.23-5.95 7.22-3.32 13.965-8.495 21.9-8.922 2.226-.12 4.507.143 6.65-.467s4.18-2.464 4.02-4.687c-.14-1.9-1.746-3.294-3.002-4.726s-2.242-3.634-1.088-5.15l20.797-3.884c-1.474-4.017-2.623-9.3.765-11.924 1.222-.944 2.86-1.32 3.9-2.46 1.774-1.944.882-5.293-1.166-6.946s-4.816-2.037-7.438-2.255c-9.12-.757-18.3-.257-27.426.244q-26.8 1.468-53.58 2.937c-3.595.197-7.746-.104-11.044 1.123-2.792 1.038-4.776 2.945-7.97 3.614-5.894 1.236-12.38.4-17.714 3.7zm98.484 43.453a2.21 2.21 0 00-1.6.363 2.02 2.02 0 00-.521 1.234 8.15 8.15 0 001.184 5.832 5.71 5.71 0 005.228 2.506c2.475-.316 4.3-2.427 6.575-3.458 3.507-1.587 18.403-4.06 8.1-9.627-3.55-1.918-5.845-.225-8.644 1.04a19.67 19.67 0 01-10.321 2.111zm90.25-46.595a5.926 5.926 0 00-2.862 2.492 2.523 2.523 0 00.943 3.335 3.75 3.75 0 001.404.223l4.892.146c2.078.062 4.674.505 5.233 2.508.415 1.487-.513 3.398.606 4.46.48.372 1.06.598 1.664.65a11.34 11.34 0 004.929.159c3.56-.955 1.7-3.127 2.8-5.062 1.715-2.96 1.418-1.168 4.44-2.864 2.232-1.253 5.116-3.525 3.253-6.718-3.24-5.553-22.533-1.713-27.313.673zm96.56-2.793l-2.84.38c-6.406.855-12.848 1.718-19.018 3.64a31.65 31.65 0 008.329 2.044 25.67 25.67 0 014.665.663c2.725.8 5.47 2.906 8.104 1.833 1.632-.665 2.165-2.365 3.517-3.266.934-.622 4.475-1.63 4.87-2.257 3.2-5.075-5.168-3.366-7.628-3.038zM676 219.702a53.277 53.277 0 00-10.483 7.677c-1.335 1.255-2.698 2.815-2.577 4.643.16 2.43 2.75 3.84 5 4.788l9.08 3.845c1.102-1.553.093-3.696-1.045-5.222s-2.492-3.3-2-5.128c.574-2.095 3.13-2.8 5.27-3.17 3.5-.588 12.907-.54 11.776-6.167-1.333-6.63-11.52-3.225-15.025-1.266zm-1.827 375.128c-.865 2.503-.947 5.45.55 7.637 1.678 2.452 5.036 3.366 7.942 2.744a14.32 14.32 0 007.374-4.74 25.39 25.39 0 004.241-6.504 50.852 50.852 0 003.144-11.502l2.82-14.804c.63-3.3.606-13.452-5.475-10.147-1.66.903-5.508 8.03-7.25 10.053-3.138 3.643-3.553 7.178-5.205 11.592-2.07 5.528-6.227 10.136-8.14 15.673zm321.182 75.757a44.33 44.33 0 01-5.778-2.751 48.704 48.704 0 00-2.93 15.965l13.616-7.705c2.048-1.16 4.37-2.77 4.326-5.123a1.62 1.62 0 00-.753-1.474 1.853 1.853 0 00-.955-.112c-2.02.168-3.86 1.162-5.764 1.853s-4.132 1.056-5.88.03m75.945 3.9a29.47 29.47 0 00-4.366 1.567c-3.125 1.6-5.25 4.6-8.062 6.703-2.7 2.004-5.93 3.104-9.1 4.174-.935.827-.506 2.492.5 3.218a6.325 6.325 0 003.596.808c3.303.073 6.784.105 9.677-1.5a30.52 30.52 0 004.556-3.616c3.383-2.823 7.446-4.685 11.467-6.485a13.16 13.16 0 003.997-2.39c2.527-2.5 2.705-6.33-.94-7.178-2.944-.685-8.523 3.782-11.326 4.7z"/><path d="M1098.908 654.43a11.36 11.36 0 00-3.475-9.307c-.037 3.428-.14 7.08-2.07 9.914-1.374 2.02-3.527 3.384-5.032 5.307s-2.173 4.973-.408 6.66a6.603 6.603 0 003.92 1.35c3.514.414 7.58.644 10.045-1.894 1.345-1.386 2-3.438 3.64-4.456a4.43 4.43 0 001.597-1.143c.677-1.077-.4-2.496-1.6-2.884s-2.547-.206-3.764-.574-2.335-1.738-1.7-2.846m-57.558-125.797c-1.843.448-3.753.56-5.636.332-3.128-.575-5.563-2.933-8.088-4.866a35.69 35.69 0 00-20.846-7.283c-6.863-.13-13.8 1.73-20.53.433.44 2.45 2.536 4.286 4.772 5.378s4.704 1.64 6.95 2.7c3.6 1.73 6.453 4.7 8.04 8.363.724 1.7 1.18 3.528 2.275 5.003 2.24 3.015 6.488 3.677 10.236 3.43 4.887-.32 10-1.727 14.537.094 3.478 1.393 5.967 4.437 8.87 6.804s6.994 4.124 10.33 2.416a17.085 17.085 0 01-11.814-16.43c3.27.3 12.7.184 12.183-5.373-.43-4.7-8.47-1.52-11.28-1.012zm-42.783 38.316c.58-3.185 3.757-5.997 2.767-9.08-.684-2.132-3.156-3.184-5.394-3.237s-4.437.614-6.675.677a32.53 32.53 0 00-4.371.062c-4.442.73-7.18 5.387-11.367 7.042-2.546 1.007-5.406.814-8.053 1.5-6 1.58-9.813 7.26-14.014 11.838a50.01 50.01 0 01-25.384 14.804c-3.417.8-7.1 1.297-9.807 3.517-3.597 2.94-4.482 7.977-5.282 12.552-2.2 12.636-5.6 25.04-10.093 37.05l14.27 1.822c2.713.346 5.524.685 8.14-.118a23.63 23.63 0 005.353-2.852 53.44 53.44 0 0120.879-7.537c3.737-.513 7.655-.607 11.162.782s6.516 4.54 6.8 8.3c3.1-.96 6.46-.142 8.762 2.13a15.23 15.23 0 014.183 8.351c.376 1.952.752 4.292 2.564 5.1 1.478.668 3.173-.05 4.8-.18 5.486-.44 10.04 5.958 15.432 4.857 5.784-1.18 7.203-9.843 12.846-11.578 3.24-.996 7.786.215 9.338-2.8 1.368-2.657-1.36-5.723-1.08-8.698.346-3.663 4.667-5.218 7.998-6.78 11.484-5.4 16.934-20.845 11.37-32.245-3.297-6.754-9.785-12.07-10.983-19.5-.922-5.7 1.33-12.366-2.3-16.86-1.852-2.286-4.987-3.548-6.088-6.275-.694-1.717-.415-3.665-.788-5.48s-1.956-3.7-3.747-3.24c-5.2 1.365-6.858 17.425-9.64 21.327-4.23 5.932-12.917 2.024-11.585-5.284zm-96.095-32.25c-1.777-.498-3.717-1-5.42-.277s-2.696 3.2-1.33 4.45c10.688-.416 21.442-.83 32.04.622 12.2 1.672 24.294 5.815 36.558 4.596a186.063 186.063 0 00-21.326-4.95l-12.006-2.293a92.83 92.83 0 00-9.749-1.506c-6.85-.566-12.033 1.245-18.768-.644zm10.7-37.227c-.887-.074-1.986-.138-2.445.625-.44.73.063 1.692-.172 2.5-.322 1.117-1.785 1.402-2.937 1.25s-2.398-.516-3.42.04a2.9 2.9 0 00-1.12 3.292 8.464 8.464 0 001.976 3.15 31.78 31.78 0 005.128 5.143c3.674 2.712 8.65 4.018 10.964 7.955a5.28 5.28 0 001.464 1.971c1.1.704 2.56.168 3.755-.378l4.192-1.915a4.76 4.76 0 001.96-1.333c.958-1.3.37-3.147-.434-4.547s-1.833-2.85-1.66-4.454c.308-2.862 3.987-3.956 5.5-6.405 1.525-2.468.532-5.648.708-8.544.206-3.387 2.334-7.792-1.1-10.323-2.9-2.15-5.7-.163-7.78 2.2-4.406 5.007-6.5 10.43-14.588 9.753zm25.444-50.602c1.43 2.74 4.415 4.376 5.975 7.044 1.692 2.893 1.5 6.63 3.334 9.434 1.883 2.877 5.672 4.404 6.728 7.675 1.153 3.572-1.463 7.913.622 11.034a4.63 4.63 0 006.794.624 4.984 4.984 0 00-.206-6.954c-1.234-1.126-3.007-1.612-4.038-2.927a6.14 6.14 0 01-1.046-2.546 16.67 16.67 0 01.262-7.989 3.57 3.57 0 00.2-2.1c-.464-1.35-2.3-1.444-3.572-2.07-2.9-1.42-2.84-5.53-2.332-8.73-.34 2.13-7.926-1.493-8.72-2.7-1.578-2.397-.72-7.02-1.032-9.67-3.407 1.642-4.72 6.5-2.972 9.86zm-76.435 42.162c-1.4-1.568-3.5-3.208-5.387-2.262-1.432.72-1.826 2.703-1.265 4.205a9.25 9.25 0 003.055 3.642c3.913 3.227 8.126 6.14 11.54 9.9 6.108 6.713 9.344 15.77 15.987 21.954a8.904 8.904 0 005.034 2.724c1.935.18 4.1-1.06 4.33-3 .183-1.6-.926-3.014-2-4.193-2.58-2.807-5.406-5.4-7.842-8.323a6.994 6.994 0 01-2.004-4.186c-.012-1.58 1.428-3.232 2.958-2.84-1.86-.476-3.24-3.576-5.972-4.16-2.282-.487-2.835.926-5.55-.24-5.18-2.222-9.245-9.16-12.873-13.223zm121.732-152.646a42.9 42.9 0 01-4.377-1.563c-3.847-1.155-8.936 1.673-8.423 5.656.34 2.647 2.804 4.43 4.164 6.727 2.017 3.404 1.48 7.722.42 11.535a9.017 9.017 0 01-1.455 3.282 11.153 11.153 0 01-3.447 2.48 46.273 46.273 0 00-13.5 11.46c-.404.43-.685.96-.815 1.536-.183 1.345 1.168 2.325 1.933 3.446 1.698 2.492.47 5.845.638 8.855a2.51 2.51 0 001.055 2.197c1.023.52 2.236-.363 2.8-1.368 1.84-3.335.454-8.687 3.907-10.295.653-.304 1.445-.432 1.88-1.006.7-.9.024-2.258.375-3.346.526-1.633 2.76-1.707 4.475-1.634a25.4 25.4 0 008.724-1.161 5.847 5.847 0 002.888-1.672c1.032-1.288.94-3.12.734-4.758a64.49 64.49 0 00-7.62-23.25c3.033.387 6.333.723 8.95-.858 1.466-.885 3.223-3.532 2.496-5.334-1.15-2.85-3.226-.45-5.804-.927zm-388.85 44.906c.363 1.947.72 3.997.082 5.87s-2.645 3.44-4.54 2.867c-1.47-.446-2.32-1.925-3.365-3.052-5.808-6.27-18.912-2.64-22.5-10.397-1.464-3.166-.47-6.96-1.468-10.3a9.17 9.17 0 00-9.285-6.308 19.08 19.08 0 00-5.343 1.595 134.73 134.73 0 01-35.4 8.854c-2.3.14-4.592.556-6.802 1.238-4.988 1.808-8.396 6.432-10.82 11.15s-4.216 9.827-7.468 14.02c-3.417 4.406-8.206 7.5-12.673 10.828a12.93 12.93 0 00-4.181 4.382c-.968 1.988-.914 4.3-.84 6.5l.913 26.844c.117 3.453.265 7.03 1.8 10.12 1.93 3.858 5.742 6.386 8.386 9.794a19.176 19.176 0 013.98 12.25c-.056 1.777-.233 3.88 1.15 4.995a5.06 5.06 0 002.83.814l36.312 2.972c6.387.523 13.466 1.382 17.637 6.25 1.968 2.297 3.55 5.6 6.564 5.846 1.293.106 2.55-.425 3.845-.528 3.263-.258 6.13 2.218 7.94 4.946a21.952 21.952 0 013.525 14.08c-.297 3.112-1.26 6.137-1.47 9.256-.8 11.868 9.27 22.18 9.464 34.07.115 6.995-3.206 13.53-6.444 19.733 5.225 7.916.947 18.457 3.027 27.7 1.974 8.78 9.294 15.653 11.118 24.465.835 4.034.883 8.998 4.44 11.076a10.12 10.12 0 005.025 1.006 66.24 66.24 0 0030.165-6.867c4.4-2.183 8.957-5.44 9.725-10.3.62-3.9-1.364-8.286.655-11.693 2.38-4.015 8.473-3.697 11.974-6.784 5.68-5.008 1.25-14.56 3.55-21.773 2.068-6.484 9.187-9.93 12.716-15.748a27.96 27.96 0 002.955-8.01 114.236 114.236 0 003.007-20.426c.094-4.184.402-8.36.924-12.5 3.805-23.638 27.173-39.466 34.76-62.174.725-2.17 1.065-5.057-.864-6.284a5.526 5.526 0 00-3.674-.385l-16.74 2.1c-2.08.262-4.283.507-6.192-.356s-3.278-3.28-2.265-5.114c2.843-5.15-3.005-11.657-5.603-16.935a250.35 250.35 0 00-24.885-40.357 4.1 4.1 0 01-1.091-2.369l4.75.158c-1.604-5.754-4.25-12.05-9.84-14.156-3.15-1.186-6.64-.776-10-.592-9.627.526-19.948-.928-29.477-2.4zM625.7 251.744c2.52 2.675 5.342 5.512 8.987 5.978 6.438.824 11.067-5.834 14.014-11.617a5.675 5.675 0 005.923 5.25 11.67 11.67 0 004.455-1.742 87.773 87.773 0 0141.58-10.748 4.49 4.49 0 013.429-4.936c2.955-.586 5.618 1.97 7.043 4.624s2.315 5.73 4.58 7.718 6.65 1.9 7.545-.977c.86-2.762-2.02-5.118-4.4-6.746s-4.9-4.642-3.3-7.046c12.213-2.704 24.502-5.417 37-5.955a15.47 15.47 0 006.228-1.073c1.906-.935 3.42-3.058 2.908-5.12a14.123 14.123 0 01-14.718-5.552c17.34-1.43 35.785-2.65 51.153 5.5 1.844 3.96-7.555 7.253-5.04 10.824.802 1.14 2.4 1.272 3.802 1.298 10.68.198 21.42.393 31.98-1.22 3.86-.6 7.756-1.42 11.63-.943 6.453.796 11.972 5.1 18.32 6.505 2.584.57 5.48.6 7.66-.912s3.114-4.925 1.33-6.878c5.977-5.858 15.897-4.406 23.783-1.602s15.355 7.327 23.7 7.953c5.985.448 12.053-1.162 17.966-.138 3.716.643 7.175 2.296 10.807 3.312 6.87 1.92 14.136 1.515 21.268 1.608a149.02 149.02 0 0153.106 10.553 15.79 15.79 0 015.904 3.488c1.573 1.685 2.376 4.303 1.318 6.35l-17.473-2.553c1.646 3.24 5.905 3.793 9.364 4.9s7.045 4.938 4.966 7.92c-3.748-1.193-7.144 2.554-9.037 6s-4.2 7.576-8.127 7.786c-3.517.188-7.77-2.806-10.062-.133a68.63 68.63 0 018.085 12.927c2.265 4.718 3.878 10.663.817 14.908a3.865 3.865 0 01-2.066 1.602c-2.5.633-4.124-2.425-5.917-4.28-2.26-2.336-5.676-2.997-8.735-4.093s-6.282-3.25-6.52-6.5c-.15-2.016.916-3.9 1.7-5.754a22.17 22.17 0 001.684-9.944c-.172-2.735-.94-5.58-2.903-7.492s-5.356-2.517-7.465-.767c-.984.817-1.773 2.123-3.05 2.172-2.258.086-4-3.85-5.808-2.506a6.17 6.17 0 01-.839 4.128c-5.42 4.714-13.748 2.72-20.736 4.385a38.92 38.92 0 00-9.461 4.132 6.086 6.086 0 00-2.704 2.27c-.872 1.695.1 3.866 1.627 4.993 1.63 1 3.463 1.625 5.365 1.83 8.52 1.614 17.163 4.1 23.9 9.583s11.137 14.518 9 22.924l-16.8-16.054q.957 10.1 1.086 20.277a9.243 9.243 0 01-.533 3.9c-1.198 2.645-4.444 3.536-7.3 4.12a5.71 5.71 0 00-4.383 7.315c1 3.294 3.53 5.863 5.838 8.422s4.578 5.468 4.88 8.9-2.288 7.302-5.725 7.063c-2.606-.18-4.54-2.514-5.65-4.878s-1.773-4.997-3.443-7.006c-5.055-6.08-16.4-3.475-20.937-9.956a10.24 10.24 0 00-2.118 9.746c2.107-1.32 5-.093 6.574 1.823s2.33 4.373 3.573 6.525c1.677 2.904 4.347 5.48 4.58 8.825a28.954 28.954 0 00.064 3.795c.416 2.027 2.13 3.483 3.317 5.177 2.764 3.943 2.628 9.36.846 13.833s-4.983 8.212-8.153 11.836c-5.538 6.33-11.2 12.623-17.754 17.88-1.873 1.5-3.873 2.975-5.04 5.072s-1.227 5.04.566 6.636c-1.283.064-3.584.695-4.866.76a113.14 113.14 0 01-.293-15.477c-5.063-2.43-10.514 4.08-9.86 9.657s4.688 10.054 7.56 14.88c2.1 3.53 3.662 7.644 2.96 11.7s-4.313 7.78-8.405 7.423c-6.508-.568-9.23-9.9-15.674-10.98a2.64 2.64 0 00-1.696.168c-.957.525-1.123 1.805-1.177 2.895-.264 5.35-.492 10.9 1.596 15.843 3.055 7.215 10.946 13.275 9.3 20.933-8.918-4.145-13.554-14.146-15.66-23.752s-2.456-19.7-6.23-28.772c-2.865 3.673-8.888.637-11.507-3.216-2.482-3.653-4-7.878-6.42-11.58s-6.097-7.017-10.5-7.22c-4.625-.213-8.637 2.96-12.165 5.96-2.9 2.466-5.88 5.03-7.575 8.44-2.468 4.96-1.822 10.8-1.94 16.35-.13 6-1.398 12.307-5.48 16.7s-11.615 5.9-16.117 1.96c-2.35-2.063-3.488-5.145-4.502-8.103a397.29 397.29 0 01-12.188-43.5c-.756 3.36-3.707 7.692-6.526 5.712a5.84 5.84 0 01-1.504-1.937c-5.258-8.912-14.996-14.258-24.835-17.463s-20.2-4.7-29.92-8.223a75.897 75.897 0 01-15.52-7.73 12.21 12.21 0 00-.746 12.487c2.158 3.822 7.042 6.033 11.223 4.697 2.16-.7 3.985-2.2 6.13-2.93s5.02-.377 5.958 1.688c.897 1.977-.46 4.368.214 6.432 1.025 3.144 5.766 3.386 7.424 6.247 1.234 2.128.22 4.955-1.543 6.672s-4.1 2.66-6.26 3.855c-6.976 3.88-11.937 10.502-18.034 15.654s-14.7 8.914-21.965 5.6c1.732-8.77-8.715-15.2-10.637-23.94-.633-2.874-.305-5.926-1.208-8.726-1.308-4.054-4.905-6.842-7.856-9.915a38.91 38.91 0 01-10.673-28.31c.16-3.608.822-7.275 0-10.792s-3.734-6.92-7.342-6.762c-8.24.364-18.623.977-22.947-6.048-1.543-2.507-2.215-6.18.016-8.1 1.574-1.355 3.897-1.227 5.964-1.024l18.568 1.827c4.343.427 9.037.78 12.764-1.5s5.342-8.297 1.9-10.968c-2.52-1.952-7.04-1.846-7.772-4.95-.6-2.584 2.25-5.517.705-7.677-1.108-1.55-3.598-1.12-5.108.042s-2.604 2.86-4.293 3.738c-2.963 1.542-6.503.074-9.7-.923s-7.46-1.082-9.007 1.88c-1.73 3.3 1.534 7.65-.182 10.968-2.27 4.387-9.953 1.9-13.14 5.663-3.656 4.33 2.488 10.786 1.255 16.318a10.16 10.16 0 01-10.007-.562 9.72 9.72 0 01-4.201-9.051c.305-2.488 1.603-5.028.733-7.38-.703-1.9-2.612-3.033-4.386-4.013l-18.044-9.97c-1.675 3.108.443 6.96 3.1 9.295s5.967 4.092 7.707 7.164a9.404 9.404 0 01-3.54 12.398 2.17 2.17 0 01-1.789.312c-.582-.342-1-.904-1.16-1.56-3.184-8.147-7.964-16.18-15.606-20.436s-18.623-3.38-23.634 3.8c-1.2 1.703-2 3.644-3.026 5.444-5.5 9.565-17.32 14.095-28.354 13.8a5.63 5.63 0 01-3.093-.727c-1.783-1.232-1.703-3.845-1.43-5.995l1.158-9.124c.233-1.832.57-3.857 2.02-5 2.044-1.612 4.993-.595 7.596-.632a9.63 9.63 0 008.738-6.744 10.85 10.85 0 00-3.02-10.789c-1.193-1.12-2.795-2.528-2.164-4.04a3.34 3.34 0 012.342-1.577c4.676-1.358 9.617-1.714 14.215-3.316s9.057-4.88 10.146-9.626c.334-1.454.486-3.216 1.792-3.937a5.38 5.38 0 012.07-.423 10.08 10.08 0 008.644-10.506c2.204-1.54 5.3-.407 7.423 1.23s4.014 3.8 6.608 4.507c4.834 1.316 9.506-2.964 14.516-2.984 2.107-.008 4.288.737 6.27.022 2-.724 3.2-2.724 4.75-4.202s4.248-2.38 5.672-.787l-1.213-8.982a17.66 17.66 0 0014.371-2.598l-15.672-5.295a3.395 3.395 0 01-1.466-.784c-1.14-1.227-.008-3.14.92-4.533 2.216-3.336 2.6-8.832-1.056-10.493-2.488-1.134-5.344.227-7.732 1.56l-11.44 6.378c-.364 2.174 2.295 3.407 3.943 4.87a6.61 6.61 0 01-4.311 11.552 8.24 8.24 0 011.471 6.984l-7.696.554a3.333 3.333 0 01-2.496-.487c-.823-.73-.712-2.012-.902-3.096-.46-2.617-3.023-4.45-5.638-4.92s-5.3.133-7.88.728a4.7 4.7 0 01-3.387-.078 3.38 3.38 0 01-1.34-1.691c-1.135-2.753-.074-5.988 1.75-8.342s4.32-4.075 6.56-6.035a38.234 38.234 0 0011.37-17.638c4.237-1.775 8.623-4.187 12.86-5.962a39.35 39.35 0 0121.151-4.098l14.348.274c4.248.08 8.6.185 12.54 1.805s7.38 5.122 7.65 9.362a2.87 2.87 0 01-.92 2.627 3.39 3.39 0 01-1.814.409c-3.962.14-5.65 1.126-9.613 1.266zm-114.36 44.968a4.2 4.2 0 001.145-4.223 7.85 7.85 0 00-8.132 1.536 13.71 13.71 0 00-2.179 2.88c-1.885 3.076-3.553 6.75-2.46 10.2.18.758.657 1.4 1.325 1.812a3.48 3.48 0 001.544.242 51.76 51.76 0 006.214-.382c1.266-.155 2.737-.512 3.226-1.7.643-1.548-.914-3.3-.46-4.915a5.37 5.37 0 011.326-1.899 2.51 2.51 0 00.782-2.107c-.183-.757-1.343-1.187-1.76-.53m10.2-14.866a17.386 17.386 0 00-5.63-.354 2.44 2.44 0 00-1.2.273 2 2 0 00-.739 1.071 5.32 5.32 0 003.097 6.519 6.667 6.667 0 011.92.772c1.593 1.236.577 3.76.88 5.754.34 2.238 2.505 4.116 2.108 6.345-.313 1.755-2.188 3.146-1.886 4.903.316 1.84 2.652 2.394 4.514 2.54a5.65 5.65 0 003.198-.367 4.95 4.95 0 002.018-2.922 18.73 18.73 0 00.944-7.052 6.675 6.675 0 00-.795-3.113 17.38 17.38 0 00-1.858-2.128c-3.567-4.15.2-10.338-6.567-12.242z"/></g><g fill="none" stroke="#23b5d3" stroke-miterlimit="10" stroke-width="2"><path d="M991.17 607.784s-273.2-156.823-390.818-127.11c0 0-249.265 26.825-278.154 85.84 0 0-79.237-247.615-108.125-255.868" opacity=".8"/><path d="M322.2 566.515c45.81-122.157 458.5-257.52 458.5-257.52-58.602 14.857-180.346 171.68-180.346 171.68s-257.52-187.362-386.28-170.03c0 0 567.037 18.57 777.097 297.137" opacity=".8"/></g><g fill="#23b5d3"><circle cx="214.074" cy="310.647" r="11.968"/><circle cx="322.199" cy="566.515" r="11.968"/><circle cx="780.698" cy="308.996" r="11.968"/><circle cx="991.171" cy="607.784" r="11.968"/><circle cx="600.352" cy="480.675" r="11.968"/></g></svg>