<svg width="52" height="52" xmlns="http://www.w3.org/2000/svg"><path fill="none" d="M-1-1h54v54H-1z"/><ellipse fill="#fbf0b8" cx="34.994" cy="33.683" rx="15.503" ry="8.58"/><ellipse fill="#4285f4" cx="24.284" cy="20.192" rx="22.899" ry="14.734"/><ellipse fill="#4285f4" cx="13.278" cy="34.038" rx="2.416" ry="2.794" transform="rotate(1.864 13.278 34.038)"/><ellipse fill="#fbf0b8" cx="43.692" cy="42.085" rx="2.426" ry="3.136"/><ellipse fill="#fbf0b8" cx="14.876" cy="19.955" rx="2.249" ry="1.598"/><ellipse fill="#fbf0b8" cx="35.822" cy="20.31" rx="1.893" ry="2.071"/><ellipse fill="#fbf0b8" cx="25.29" cy="20.251" rx="2.249" ry="2.012"/><path class="st0" d="M36.168 18.89c.956.347 1.33 1.284 1.036 2.23a3.55 3.55 0 01-.18.448c.268-.196.201-.213-.199-.053-.46.032-.903.063-1.365.052-.42-.01-.76.041-1.049-.31-.24-.29-.305-.958-.205-1.303.084-.29.512-.942.79-1.075.313-.149.927-.02 1.267-.012 1.448.038 1.447-2.212 0-2.25-.99-.026-1.932-.11-2.734.576-.722.617-1.38 1.54-1.559 2.483-.39 2.05.915 3.972 2.991 4.124.964.07 2.12.095 3.028-.284.826-.345 1.194-1.101 1.425-1.93.599-2.149-.626-4.131-2.648-4.865-1.363-.495-1.95 1.678-.598 2.17zm-9.63.274c.787.182.636 1.403.217 1.904-.488.583-1.725.695-2.409.479-.511-.162-.475-.362-.531-.87-.035-.32-.11-.833.045-1.103.4-.692 1.515-1.26 2.213-.706 1.123.89 2.726-.69 1.591-1.59-1.846-1.466-4.006-.9-5.495.81-.732.843-.674 1.867-.59 2.927.09 1.126.55 2.038 1.613 2.514 1.785.799 4.555.308 5.595-1.453 1.049-1.776.582-4.566-1.65-5.082-1.41-.325-2.011 1.844-.599 2.17zm-10.825-.289c.7.174.944.977.632 1.601-.392.787-1.457.669-2.197.576-.84-.105-1.08-.806-.869-1.605.1-.379.165-.395.58-.471.246-.045 1.022-.043 1.024-.041.998 1.054 2.587-.54 1.591-1.591-1.227-1.296-4.392-.787-5.173.82-.848 1.746-.192 4.371 1.768 4.966 1.882.571 4.337.266 5.28-1.651.908-1.85.034-4.26-2.038-4.773-1.406-.349-2.005 1.82-.598 2.17z"/><path class="st0" d="M45.843 16.503c4.301 7.08-3.8 13.034-9.374 15.68-4.21 2-14.572 4.614-18.166.389-.382-.449-1.206-.422-1.591 0-2.716 2.976-6.052 4.239-9.059 6.682l1.767 1.364c1.57-2.252 4.34-6.539 2.585-9.235-1.123-1.726-4.397-2.019-5.995-3.58-3.977-3.883-4.853-10.047-1.146-14.32 5.062-5.834 14.132-5.98 21.291-6.341 4.42-.224 8.725-.432 12.638 1.944 3.16 1.92 5.85 4.948 8.196 7.76.929 1.113 2.513-.486 1.591-1.59C43.343 8.98 38.202 4.685 29.845 4.771c-7.113.074-17.496-.06-23.472 4.334C1.35 12.8-1.131 17.6.92 23.798c.891 2.691 2.617 5.06 4.872 6.77.564.427 3.967 1.686 4.284 2.23 1.048 1.8-1.596 5.245-2.6 6.684-.786 1.126.85 2.108 1.767 1.363 3.105-2.523 6.262-3.617 9.059-6.682h-1.591c2.385 2.804 6.256 2.575 9.67 2.511 4.557-.085 8.528-1.152 12.57-3.231 6.785-3.489 13.502-10.393 8.834-18.075-.75-1.236-2.697-.106-1.943 1.135z"/><path class="st0" d="M45.3 26.852c5.094 4.803 5.87 10.309-1.11 14.004-.51.27-.738 1.053-.404 1.54 3.632 5.291-1.338-.803-2.904-1.598-.734-.374-.757-.22-1.563-.34-1.15-.172-2.837.653-4.044.76-1.432.125-2.971.084-4.408-.048-4.565-.418-8.155-2.533-10.513-6.497-.74-1.244-2.686-.113-1.943 1.135 3.597 6.047 9.256 7.88 16.04 7.679.873-.026 4.363-1.011 5.109-.8-.824-.233 1.851 2.023 1.899 2.067 1.566 1.454 3.052 2.742 5.218 2.427.434-.063.88-.643.826-1.084-.242-1.937-.671-3.23-1.775-4.837l-.403 1.539c3.696-1.956 6.455-4.225 6.475-8.604.02-4.208-1.973-6.166-4.908-8.934-1.053-.993-2.648.595-1.591 1.59z"/></svg>