<svg xmlns="http://www.w3.org/2000/svg" xmlns:xlink="http://www.w3.org/1999/xlink" width="772" height="756.266"><style>.B{fill:#3f3d56}.C{fill:#f2f2f2}.D{fill:#2f2e41}.E{fill:#23b5d3}</style><defs><path id="B" d="M621.5 367.62h-517v-18h517zm-515-2h513v-14h-513z"/><path id="C" d="M112.026 722.52c-2.914 1.988-6.53 2.608-10.034 3.06-3.5.444-7.113.788-10.286 2.348-2.738 1.354-5.048 3.572-7.946 4.543-2.696.74-5.535.784-8.252.13-3.258-.612-6.73-1.797-8.49-4.612-1.568-2.5-1.4-5.675-1.185-8.62q.38-5 .742-9.996a4.76 4.76 0 01.62-2.417c2.356-3.434 8.084 1.438 11.15 1.43 4.856-.008 10.072-2.64 13.575-5.858a4.12 4.12 0 011.056-.795c1.384-.62 2.77.528 4 1.53l.413.337c2.837 2.248 6.646 2.707 10.15 3.617 3.5.9 7.266 2.746 8.35 6.202.07.218.127.44.168.665.635 3.182-1.3 6.57-4.03 8.436z"/><path id="D" d="M112.026 723.64c-2.914 1.988-6.53 2.608-10.034 3.06-3.5.444-7.113.788-10.286 2.348-2.738 1.354-5.048 3.572-7.946 4.543-2.696.74-5.535.784-8.252.13a13.639 13.639 0 01-8.49-5.73c-1.568-2.5-1.4-5.675-1.185-8.62q.38-5 .742-9.996a4.76 4.76 0 01.62-2.417c2.356-3.434 8.084 1.438 11.15 1.43 4.856-.008 10.072-2.64 13.575-5.858a4.12 4.12 0 011.055-.795c1.384-.62 2.77.528 4 1.53a28.73 28.73 0 01-3.411 7.051 14.67 14.67 0 01-10.7 6.692c-2.172.16-4.398-.268-6.5.29-2.096.558-4.053 2.707-3.312 4.75.727 1.988 3.296 2.424 5.415 2.54 2.967.16 6.01.306 8.826-.62 1.72-.574 3.296-1.522 4.97-2.218 7.12-2.952 16.114-1.3 21.995-6.287.558-.5 1.16-.97 1.797-1.377 1.54 3.223-1.3 7.69-4.03 9.555z"/><path id="E" d="M34.764 505.755a43.784 43.784 0 006 32.306c1.668 2.585 3.623 5.012 4.877 7.82a35.55 35.55 0 011.903 6.198l5.405 22.373c1.46 6.04 2.93 12.197 2.49 18.395-.305 4.32-1.394 9.175 1.268 12.6a9.28 9.28 0 011.608 2.206c.265.95.275 1.953.027 2.907-2.735 16.244-4.763 33.226.177 48.94 4.477 14.243 4.733 30.024 8.54 44.46.47 1.788 1 3.672 2.365 4.93a7.75 7.75 0 003.545 1.685c5.6 1.335 11.534-.23 16.766-2.653 3.677-1.704 7.635-4.692 7.32-8.732-.15-1.922-1.272-3.607-2.034-5.377-1.495-3.473-1.615-7.353-2.018-11.113-1.013-9.44-3.923-18.555-6.123-27.792s-3.694-18.887-1.834-28.198a246.66 246.66 0 0118.141-55.808 6.73 6.73 0 011.662-2.499 17.18 17.18 0 002.352-1.605 7.09 7.09 0 001.076-2.926c.818-2.947 3.248-5.12 4.878-7.71 4.114-6.535 2.8-14.912 2.658-22.633-.148-7.508.933-15.085-.298-22.493s-5.475-14.98-12.616-17.3c-3.538-1.15-7.362-.89-11.064-.523-19.61 1.94-38.668 5.504-57.073 12.55z"/><path id="F" d="M8.998 378.714c-.434 3.01 1.013 5.97 1.174 9.007.14 2.654-.705 5.246-1.188 7.86-1.886 10.2 1.738 20.53 5.427 30.226a15.601 15.601 0 011.288 4.97c.1 3.164-1.724 6.064-2.223 9.2-1.05 6.57 3.797 12.75 3.897 19.4.046 3.062-.918 6.18-.152 9.145.51 1.98 1.747 3.68 2.623 5.526 1.553 3.272 1.97 6.984 3.453 10.29 2.68 5.972 8.436 9.87 13.914 13.454 3.117-1.04 6.486-2.273 8.197-5.077a12.58 12.58 0 001.431-4.452c1.184-6.803 1.143-13.753 1.1-20.658.1-5.942-.216-11.884-.945-17.782-1.107-7.503-3.54-14.737-5.287-22.117-2.203-9.308-3.33-18.925-6.762-27.853-3.015-7.846-7.7-14.89-12.653-21.635-1.886-2.574-3.375-6.253-7.035-5.66-3.172.54-5.67 3-6.257 6.165z"/><path id="G" d="M87.54 336.408c-3.047-1.897-6.634-2.7-10.164-3.346-2.12-.482-4.3-.64-6.467-.465-2 .25-3.918 1.02-5.93 1.133-2.823.157-5.53-.988-8.258-1.734s-5.878-1.032-8.174.62a3.53 3.53 0 01-1.779.945 3.12 3.12 0 01-1.84-.902 10.48 10.48 0 00-13.059.688c-5.207 4.882-4.618 14.422-10.72 18.125-1.682 1.02-3.832 1.56-4.814 3.266a12.067 12.067 0 01-.83 1.57c-.41.45-.91.806-1.467 1.045a28.51 28.51 0 00-5.03 2.892 7.193 7.193 0 00-2.895 4.853 9.12 9.12 0 00.89 4.08c6.12 15.008 21.024 24.54 37.214 23.797a5.89 5.89 0 003.898-1.217 7.35 7.35 0 001.366-2.25c2.87-6.015 8.257-10.456 11.678-16.174 2.04-3.408 3.348-7.22 5.47-10.578 3.218-5.09 8.11-8.848 12.9-12.497 2.7-2.057 5.708-4.216 9.102-4.072 3.024.13 5.224.29 4.115-3.418a11.877 11.877 0 00-5.208-6.36z"/><linearGradient id="A" x1="278.15" y1="798.037" x2="278.15" y2="789.287" gradientUnits="userSpaceOnUse"><stop offset="0" stop-color="gray" stop-opacity=".25"/><stop offset=".535" stop-color="gray" stop-opacity=".12"/><stop offset="1" stop-color="gray" stop-opacity=".1"/></linearGradient></defs><path d="M772 170.07v54.6L271.6 5h124.38L772 170.07z" class="C"/><circle cx="663" cy="66" r="66" class="E"/><path d="M698 374c-6.627 0-12-5.373-12-12s5.373-12 12-12 12 5.373 12 12c-.007 6.624-5.376 11.993-12 12zm0-22a10 10 0 100 20 10 10 0 0010-10c-.006-5.52-4.48-9.994-10-10zM26 209H0v-26h26zm-24-2h22v-22H2zM413 30h-26V4h26zm-24-2h22V6h-22z" class="B"/><path d="M118.5 162.62h186v151h-186z" class="E"/><path d="M118.5 359.62h515v16h-515z" class="C"/><path d="M292.5 305.62h-188v-153h188zm-186-2h184v-149h-184z" class="B"/><g class="E"><path d="M378.5 204.12h180v16h-180z"/><path opacity=".3" d="M378.5 247.12h255v16h-255z"/></g><g class="B"><path d="M546.5 212.12h-182v-18h182zm-180-2h178v-14h-178zm255 45h-257v-18h257zm-255-2h253v-14h-253z"/><use xlink:href="#B"/></g><path d="M118.5 409.62h515v16h-515z" class="C"/><use xlink:href="#B" y="50" class="B"/><path d="M118.5 459.62h515v16h-515z" class="C"/><use xlink:href="#B" y="100" class="B"/><path d="M118.5 509.62h515v16h-515z" class="C"/><use xlink:href="#B" y="150" class="B"/><path d="M118.5 559.62h515v16h-515z" class="C"/><use xlink:href="#B" y="200" class="B"/><path d="M118.5 609.62h515v16h-515z" class="C"/><g class="B"><use xlink:href="#B" y="250"/><path d="M664.5 714.133H75V64.62h589.5zm-587.5-2h585.5V66.62H77z"/></g><path d="M276.4 797.987a.492.492 0 00-.1.05l3.3-7.8.35-.94-.02.25-.1 1.5-.12 2.4v.74a14.63 14.63 0 00.3 2.9h-.04l-.72.07a9.833 9.833 0 00-2.73.78.59.59 0 00-.11.06z" transform="translate(-214 -71.867)" fill="url(#A)"/><path d="M81.335 333.34c.107 4.176 1.522 8.222 1.744 12.4-12.298.612-24.427-5.354-36.603-3.526 3.403-2.203 5.224-6.172 6.294-10.08a41.8 41.8 0 001.201-15.487 6.82 6.82 0 00-.153-.857c-.45-2.042-1.62-4.933-1.308-6.54.413-2.126 2.417-1.705 4.222-1.583a158.37 158.37 0 0116.412 2.118c1.415.245 15.196 3.686 15.403 3.327a64.61 64.61 0 00-5.965 12.3 23.96 23.96 0 00-1.247 7.946zm121.617-12.9a17.98 17.98 0 01-3.755 3.786l-2.9 2.248a12.347 12.347 0 01-6.15 2.5c-2.93.2-9.147-1.522-10.967-4.03a7.27 7.27 0 01-1.048-4.199 19.25 19.25 0 011.01-5.874 32.7 32.7 0 014.742-8.58c2.118-2.944 4.474-5.843 7.625-7.625a29.58 29.58 0 013.243-1.491l5.728-2.348c.325-.16.68-.253 1.04-.275 1.537.015 1.82 2.363.948 3.633-1.744 2.554-5.667 3.266-6.768 6.164a4.395 4.395 0 014.084 3.166 2.24 2.24 0 00.551 1.277c.505.405 1.293.176 1.866.482 1.017.543.574 2.057.68 3.204a14.95 14.95 0 001.048 2.883 6.124 6.124 0 01-.987 5.078z" fill="#a0616a"/><path d="M33.432 739.1c.947-.946 2.493-.785 3.815-.576a141.54 141.54 0 0021.451 1.735c.9-4.392-1.71-8.66-2.553-13.064a11.79 11.79 0 00-.85-3.303c-1.012-1.94-3.294-2.83-5.435-3.28-3.866-.815-9.908-2.254-12.067 1.654-2.59 4.7-3.42 11.616-4.36 16.835z" fill="#65617d"/><use xlink:href="#C" class="B"/><use xlink:href="#C" class="D"/><use xlink:href="#D" fill="#e8eaf2"/><use xlink:href="#D" opacity=".05"/><use xlink:href="#E" class="D"/><use xlink:href="#E" opacity=".1"/><path d="M114.642 552.843a46.89 46.89 0 01-.987 8.68q-5.185 29.08-11.05 58.04l-1.132 4.994a40.5 40.5 0 01-7.487 14.73C77.687 659.6 76.28 689.1 67.44 713.595l-1.828 4.956a123.937 123.937 0 01-5.453 12.168 3.48 3.48 0 01-1.124 1.453 3.33 3.33 0 01-1.774.344 51.79 51.79 0 01-22.967-5.224 4.766 4.766 0 01-2.44-2.027 4.9 4.9 0 01-.26-2.333c.245-4.856.543-9.89 2.86-14.156a30.216 30.216 0 015.66-6.86c.688-15.242 2.195-30.515 5.545-45.398 1.72-7.6 3.847-15.303 8.267-21.735 3.258-4.75 7.93-9.438 7.357-15.166-.252-2.516-1.308-5.652.742-7.128.895-.65 2.218-.734 2.822-1.66a3.15 3.15 0 00.398-1.423c.42-3.93.176-7.905-.727-11.755a62 62 0 01-1.751-7.663c-.26-2.616.184-5.445 1.927-7.403.107-5.23-.038-10.66.07-15.885a29.485 29.485 0 00-.734-8.872c-.398-1.37-1.002-2.677-1.308-4.076-1.094-5.025 1.637-11.044-1.614-15.028-1.354-1.652-3.442-2.478-5.216-3.67-3.54-2.363-5.866-6.233-7.16-10.294a56.818 56.818 0 01-2.027-12.604 12.97 12.97 0 01-.031-2.723 4.99 4.99 0 01.367-1.361c1-2.27 3.725-3.15 6.14-3.732a198.856 198.856 0 0146.897-5.484c5.843-3.977 9.132-2.554 11.61 1.66a43.564 43.564 0 013.304 8.07c1.132 3.42 1.2 22.554 2.302 25.988 1.43 4.466-2.707 13.583-2.654 18.27z" class="D"/><use xlink:href="#F" class="B"/><use xlink:href="#F" opacity=".05"/><circle cx="75.808" cy="297.045" r="28.4" fill="#a0616a"/><g class="B"><path d="M92.335 343.535c-1.238 1.433-2.9 3.01-4.736 2.55a6.47 6.47 0 01-1.843-.986c-3.274-2.1-7.292-2.605-11.144-3.185a164.43 164.43 0 01-22.949-5.159 23.41 23.41 0 00-6.788-1.38c-4.813.025-9.08 3.225-12.096 6.976s-5.153 8.14-8.113 11.936c-2.11 2.704-4.62 5.088-6.6 7.895-4.972 7.088-6.04 16.336-4.757 24.898s4.705 16.636 8.095 24.603a85.484 85.484 0 006.61 13.326c-1.144 6.506-.54 13.946 2.554 19.782 1.007 1.9 2.242 3.754 2.575 5.88.153 1.438.093 2.89-.178 4.312l-1.445 10.282-1.45 9.372c-1.043 5.692-2.46 11.87.177 17.02 3.157 6.17-.16 14.074.67 20.954a105.398 105.398 0 0127.674-6.575c6.103-.598 12.32-.674 18.208-2.387 3.677-1.07 7.164-2.764 10.898-3.617a50.277 50.277 0 019.19-.938c6.805-.275 13.66-.547 20.395.456.546.08 1.2.125 1.536-.32.146-.242.217-.52.205-.803a13.58 13.58 0 00-1.741-7.23c-.86-1.516-2.052-2.998-2.02-4.74a7.2 7.2 0 01.59-2.354l2.985-7.96c2.52-6.72 1.32-14.526 2.63-21.582a126.737 126.737 0 001.962-16.696c.242-4.79.092-9.974-2.798-13.8a15.779 15.779 0 01-2.183-3.036 9.205 9.205 0 01-.52-3.63q-.097-14.374.79-28.73l-7.666-13.68c-2.932-5.267-5.906-10.642-7.1-16.552-.784-3.912-.756-7.94-1.317-11.892a5.206 5.206 0 00-1.004-2.777c-.962-1.1-2.59-1.246-4.043-1.2-1.795.057-3.57.384-5.268.97z"/><path d="M101.82 387.892c1.73 2.155 3.53 4.37 5.982 5.644 2.82 1.464 6.144 1.498 9.322 1.43 13.086-.28 26.12-1.71 38.956-4.28a24.33 24.33 0 004.29-1.15 22.58 22.58 0 004.336-2.705c4.225-3.038 8.5-6.132 11.723-10.226a34.38 34.38 0 006.949-17.043c3.056-2.816 4.68-6.818 6.21-10.68a16.31 16.31 0 001.415-5.188c.082-1.837-1.135-3.763-.798-5.57a14.72 14.72 0 014.506-8.106c.495-.353.87-.85 1.072-1.424a2.291 2.291 0 00-.255-1.388c-1.308-2.913-4.298-4.79-7.398-5.554a31.75 31.75 0 00-9.532-.378 22.28 22.28 0 00-3.122.829l-2.22 5.848a7.575 7.575 0 01-1.45 2.668 13.62 13.62 0 01-1.577 1.233 9.02 9.02 0 00-3.125 7.882 8.47 8.47 0 00-5.008 10.455 9.98 9.98 0 00-7.323 6.447 4.82 4.82 0 01-.956 2.006 3.896 3.896 0 01-2.557.786c-2.5.155-4.704 2.132-6.978 1.06a14.184 14.184 0 00-8.288-1.158 6.24 6.24 0 01-1.769.157 4.67 4.67 0 01-1.451-.505 11.61 11.61 0 00-3.29-1.294 3.08 3.08 0 00-3.121 1.206c-.796-.873-1.27-1.992-1.997-2.925a3.2 3.2 0 00-3.028-1.445c.756-.674-.018-2.014-1-2.26a12.82 12.82 0 00-3.021.109c-2.627-.014-4.642-2.4-7.193-3.023-2.345-.574-5.47.1-6.673-1.983-.426-.742-.5-1.75-1.235-2.203a2.393 2.393 0 00-1.584-.184 15.49 15.49 0 00-4.792 1.454c-2.46 9.62-1.17 19.61.705 29.36a25.9 25.9 0 005.279 12.102z"/><use xlink:href="#G"/></g><use xlink:href="#G" opacity=".05"/><path d="M102.32 748.018c-2.057 1.92-4.887 2.76-7.633 3.357a137.57 137.57 0 01-18.997 2.348l-6.202.474c-6.057.46-12.122.925-18.202.948a125.53 125.53 0 01-22.385-1.935 1.9 1.9 0 01-2.042-2.271 108.375 108.375 0 012.753-22.47c.704-3.03 6.134 3.763 6.378 4.046 1.507 1.713 2.646 2.5 4.933 2.623 6.248.344 13.246-3.457 18.2-6.837a23.21 23.21 0 013.373-2.088 9.93 9.93 0 012.73-.78 16.497 16.497 0 019.292 1.88c3.732 1.85 7.006 4.512 10.7 6.417a30.054 30.054 0 009.6 3.036c3.38.467 7.42.688 9.155 3.617.006.006.01.015.008.023 1.423 2.424.4 5.698-1.66 7.6z" class="D"/><path d="M102.32 749.137c-2.057 1.92-4.887 2.76-7.633 3.357a137.594 137.594 0 01-18.997 2.348l-6.202.474c-6.057.46-12.122.925-18.202.948a125.53 125.53 0 01-22.385-1.935 2.47 2.47 0 01-1.774-.857 9.92 9.92 0 01-1.387-2.534c.13-7.556 2.175-15.105 3.872-22.47.704-3.03 6.134 3.763 6.378 4.046 1.507 1.713 2.646 2.5 4.933 2.623 6.248.344 13.246-3.457 18.2-6.837a23.21 23.21 0 013.373-2.088 9.93 9.93 0 012.73-.78c-.803 4.497-7.25 9.927-10.577 11.58-6.73 3.342-14.73 1.675-22.24 2.065a3.1 3.1 0 00-1.576.382c-.902.597-.956 1.874-.925 2.952.06 1.8.29 3.893 1.843 4.803.777.373 1.632.55 2.493.52 18.507.8 37.05.16 55.455-1.943a30.49 30.49 0 009.032-2.011 23.38 23.38 0 005.239-3.373c2.364 1.857.4 6.817-1.66 8.73z" fill="#e8eaf2"/><path d="M86.857 296.738c-.107 2.937 1.897 8.634-3.594 7.044-3.273-.948-4.2-4.826-8.352-3.962-4.19.88-5.11 5.98-6.516 9.33a17.856 17.856 0 01-12.94 10.455 7.79 7.79 0 01-3.564-.008c-2.677-.765-4.206-3.526-5.3-6.088a47.76 47.76 0 01-2.348-6.684 28.376 28.376 0 01-.85-4.902v-.008a21.773 21.773 0 01-.015-3.388c.497-6.677 4.298-12.764 9.162-17.368s10.776-7.93 16.61-11.212a24.23 24.23 0 016.126-2.73c2.13-.43 4.313-.52 6.47-.268 2.84.12 5.632.778 8.23 1.935a11.59 11.59 0 012.899 2.034 8.693 8.693 0 012.508 4.19c1.056 4.313-1.698 8.2-3.93 11.6-1.99 3.03-4.45 6.24-4.596 10.02z" class="D"/><path d="M92.79 280.12a25.03 25.03 0 01-1.683 2.401 28.41 28.41 0 01-3.885 4.023 32.331 32.331 0 01-2.623 2.057 41.236 41.236 0 01-5.3 3.166c-5.37 2.707-11.18 4.405-16.963 6.08q-5.667 1.652-11.342 3.296c-3.954 3-17.2 12.803-19.426 11.58C28.947 311.277 43.32 301.1 43.32 301.1l.66.502c-2.103-1.323-3.204-4.4-3.68-7.044-.84-4.75-1.24-9.682-.115-14.378 1.124-4.688 3.946-9.155 8.244-11.35 1.904-.98 4.214-1.644 5.59-3.15a3.97 3.97 0 00.543-.734c.083-.123.155-.254.214-.4.152-.414.355-.807.604-1.17.788-.9 2.218-.635 3.41-.49.13.015.252.03.382.038.213.022.428.032.642.03 4.26.092 8.4-2.28 12.703-2.28 4.726-.008 8.75 2.73 12.9 4.596l2.386 1.078c3.006 1.4 5.27 2.89 6.508 6.868.72 2.325-.268 4.826-1.537 6.89z" class="B"/><path d="M43.605 300.988a5.25 5.25 0 001.962.73 6.325 6.325 0 005.234-.784z" opacity=".1"/></svg>