<svg xmlns="http://www.w3.org/2000/svg" xmlns:xlink="http://www.w3.org/1999/xlink" height="741.038" width="937.461"><style>.B{opacity:1}.C{fill-rule:evenodd}.D{fill:#4285f4}.E{fill:#2f2e41}.F{fill:#3f3d56}.G{fill:#ffb9b9}.H{fill:#ffc1c7}</style><defs><path id="A" d="M773.22 668.338l.9 21.625v18.922h23.418v-40.546H773.22z" class="B C"/><path id="B" d="M902.017 648.515l.9 21.625v18.922h23.418l-4.503-44.15-19.815 3.604z" class="B C"/><path id="C" d="M878.6 298.015l-7.205 56.765-23.418 67.577-10.808-38.744 13.5-24.328-2.702-51.36 30.623-9.91z" class="B C"/><path id="D" d="M765.43 293.228s-19.815 35.14-17.113 38.744 4.503 23.427 4.503 23.427h7.5l12.315-30.635" class="B C"/><path id="F" d="M802.8 193.664s17.113 23.427 11.71 35.14 52.24-6.307 52.24-6.307-28.822-32.437-29.722-43.25" class="B C"/><path id="G" d="M866.758 298.183c-2.027 3.045-4.017 6.442-5.944 10.028-.9 1.703-1.8 3.45-2.684 5.217-10.466 21.102-18.392 46.024-18.392 46.024l-83.763-2.703 2.603-7.64 11.808-34.708c-20.716-12.614-.9-36.942 9.907-59.468 9.925-20.688 30.497-34.446 33.776-36.555.297-.18.45-.28.83-.342l42.116-7.09c4.757.8 9.314 2.514 13.42 5.046a27.11 27.11 0 018.475 8.488c3.287 5.226 4.828 11.515 5.107 18.246" class="B C"/><path id="H" d="M871.712 223.848s16.212 18.922 17.113 35.14-2.702 46.853-10.808 46.853-22.517 5.406-21.616 0" class="B C"/><path id="I" d="M856.4 258.087l-9.907 1.802c-3.36-26.914-22.796-37.753-32.424-41.5l.45-.28.378-.063 15.032-2.532" class="B C"/><path id="J" d="M923.95 645.53c-.9 5.406-27.02 15.317-34.226 14.416s-78.36-174.8-78.36-174.8l-1.8 197.325c-1.8 3.604-32.424 0-43.233-12.614s-18.014-209.94-22.517-243.277 9.007-76.587 9.007-76.587l5.755-.883 17.662-2.72s0-4.505 27.02-26.13 43.233-60.37 43.233-60.37l2.702-5.406 7.205 3.604c7.728-14.3 12.564-28.355 14.033-42.096a27.11 27.11 0 018.475 8.488 175.528 175.528 0 00-2.072 6.127c-6.07 18.913-12.952 48.205-19.797 77.047l-.64 2.694c.652.983 1.23 2.013 1.73 3.082 1.82 3.847 3.747 10.39-1.73 14.038-8.106 5.406-10.808 32.437-10.808 32.437 15.312 13.515 18.914 77.488 17.113 81.994s-1.8 3.604 2.702 6.307 4.503 25.23 4.503 25.23" class="B C"/><path id="K" d="M786.147 698.7s-5.404 5.406-9.007 2.703-3.744-14.202-3.744-14.202-41.3-3.818-33.184 23.213 64.85 30.635 66.65 25.23-6.305-39.645-6.305-39.645" class="B C"/><path id="L" d="M914.944 678.867s-5.404 5.406-9.007 2.703-3.744-14.202-3.744-14.202-41.3-3.818-33.184 23.213 64.85 30.635 66.65 25.23-6.305-39.645-6.305-39.645" class="B C"/><path id="M" d="M788.85 277.9l-3.603 47.754-45.935 51.36s-15.312 7.208-6.305 19.823 12.6 13.515 12.6 13.515l.9-16.218 62.147-49.557 6.305-66.676" class="B C"/><path id="N" d="M817.67 258.087s3.603-40.546-14.41-36.942-18.914 20.724-18.914 20.724-8.106 41.447-.9 43.25 31.524 5.406 34.226 0" class="B C"/><path id="O" d="M895.693 194.98c-3.508-1.738-11.254-5.245-17.85-9.47.463-13.746-1.23-26.224-6.182-32.84-2.78-6.315-8.618-12.638-13.19-17.617-11.23-12.227-36.06-19.053-40.463-12.943-33.308.658-36.815 26.777-36.815 26.777.173 10.925 11.523 11.27 21.466 10.872-.9 7.458 1.482 15.208 8.353 18.645 13.14 6.572 17.08 15.116 10.51 21.03s-18.395 21.688-2.628 25.63 17.738 11.83 13.14 15.116 10.51-5.915 10.51-5.915 2.628 15.773 16.424 11.83a8.3 8.3 0 003.687-2.613c3.726 4.096 7.05 6.517 9.555 6.53 14.348.076 12.627-15.82 12.627-15.82s17.03 4.785 11.716 2.86-5.542-10.05 8.58-18.1" class="B C"/><path id="P" d="M.727 1.03H693V573H.727z" class="B"/><path id="Q" d="M693 573H0V0l481.488 2.73H1.883v567.54h689.234L693 321.53V573z" class="B C"/><path id="U" d="M90.97 59.005h501.68v1.802H90.97z" class="B"/><path id="V" d="M87 111h212.478v187.58H87z" class="B"/><path id="W" d="M212.097 150.393c-8.11-13.738-24.157-14.378-24.157-14.378s-15.636-2.004-25.667 18.918c-9.35 19.502-22.252 38.33-2.077 42.896l3.644-11.37 2.257 12.216a78.92 78.92 0 008.632.148c21.606-.7 42.182.205 41.52-7.567" class="B C"/><path id="Y" d="M180.99 182.146s9.52 22.265-3.173 26.718l12.692 41.986 21.577-1.272 5.71-13.995-1.27-20.993-1.904-13.995s-13.327 3.18-12.058-20.357" class="B C"/><path id="Z" d="M175.912 208.228s-20.942-1.908-19.038 13.36 3.808 18.448 3.808 18.448l1.904 22.9-11.423 6.998h-10.788s-33 7.634-16.5 15.904 22.21-6.36 22.21-6.36 30.46 0 32.365-5.09" class="B C"/><path id="a" d="M216.527 201.866s19.673-6.998 20.942 8.27l1.27 16.54 3.808 21.63s7.615 19.084 7.615 24.8 5.71 23.537 5.71 23.537 7.615 24.8-.635 24.174-9.52-26.718-9.52-26.718l-17.134-34.352-5.077-20.993" class="B C"/><path id="b" d="M179.085 205.683h-5.077l-.635 26.718s-8.25 11.45 1.904 21.63l2.538 16.54 46.326-1.908 3.173-17.176s6.346-13.995-2.538-26.718l-8.25-26.082h-4.442s10.29 38.028-11.423 38.805" class="B C"/><path id="c" d="M237.167 297.357h-66.6l5.98-17.24 1.543-5.157.64-2.137 1.625-5.433 41.243-1.27 5.077 11.45c.342.102.666.256.962.456" class="B C"/><path id="d" d="M226.046 261.028l-50.134 1.908s-2.288 17.176 0 17.176c.635 0 52.672 4.453 52.038-3.18" class="B C"/><path id="f" d="M177.08 133.024c.001-5.95 4.48-10.94 10.38-11.565a11.69 11.69 0 00-1.221-.065 11.6 11.6 0 00-10.252 6.171c-2.015 3.8-1.773 8.404.63 11.97s6.574 5.5 10.843 5.055" class="B C"/><path id="g" d="M207.287 150.296l-15.852-8.324-21.893 3.405-4.53 20.054 11.275-.434 3.15-7.368v7.246l5.203-.2 3.02-11.73 1.887 12.486 18.495-.378-.755-14.756z" class="B C"/><path id="h" d="M386 111h212.48v187.582H386z" class="B"/><path id="j" d="M471.858 173.688s2.64 12.568 2.64 13.89 12.538 7.276 12.538 7.276l11.218-1.984 3.96-11.907s-6.6-9.922-6.6-13.89" class="B C"/><path id="k" d="M528.755 299.208l3.154-5.792-5.278-56.224.313-2.54 5.62-45.746-32.55-11.472a13.685 13.685 0 01-9.677 12.795c-9.9 3.303-16.715-7.817-16.715-7.817l-27.503 21.046 19.8 57.547s.656 21.83 1.32 23.818c.656 1.98-.664 2.646-1.32 3.303-.664.665.656 2.646 1.32 2.646.328 0 .984 2.48 1.566 4.962l.768 3.475" class="B C"/><path id="l" d="M574.057 284.795S590 294.9 588.23 301.455s-20.076-11.305-20.076-11.9" class="B C"/><path id="m" d="M528.755 299.208h4.965l-1.484-5.463a8.76 8.76 0 01-.76.471c-1.946 1.106-7.754 3.88-18.72 4.992a110.85 110.85 0 01-20.577 0 179.71 179.71 0 01-22.634-3.475h-1.32l-.738 3.475" class="B C"/><path id="n" d="M461.795 140.427s6.704-14.56 19.554-11.2 20.113 8.4 20.67 13.44-.28 12.6-.28 12.6-1.397-10.36-10.336-8.12-22.906.56-22.906.56l-2.235 20.162s-2.514-3.64-5.308-1.4" class="B C"/><path id="o" d="M460.956 299.208h-18.16l-1.3-2.48c-7.918-13.893-7.918-33.078-7.918-33.078l4.615-39.027c-.656-13.893 7.918-21.165 7.918-21.165h9.9l7.262 24.476-8.58 32.413-1.32 1.98s1.32 1.988.656 2.646c-.656.665-1.32 3.31-1.32 3.31s1.983 13.228 3.966 14.55c1.976 1.323-.664 1.323-.664 1.988 0 .658 1.983 3.303 1.983 3.303v3.31" class="B C"/><path id="p" d="M521.2 186.918l10.038 1.785s5.905 5.95 8.267 13.1l4.724 21.42 7.676 15.47s8.857 8.925 15.352 29.155l9.448 17.85-10.038 5.95s-27.752-32.725-31.295-44.03l-15.352-29.75" class="B C"/><path id="q" d="M85 335h212.48v187.58H85z" class="B"/><path id="r" d="M170.51 378.12a7.714 7.714 0 014.077 3.452c.693 1.437.67 3.118 1.143 4.646.998 3.217 4 5.323 5.867 8.137 2.53 3.802 2.827 8.646 2.652 13.21s-.762 9.217.38 13.65c.54 2.16 1.463 4.213 1.836 6.41.45 2.662.076 5.445.762 8.06.602 2.38 2.012 4.464 3.398 6.487l5.928 8.646a68.625 68.625 0 01-7.826-2.35 14.003 14.003 0 004.23 6.38l-4.282-5.17a12.225 12.225 0 00-3.193-3.042c-1.57-.9-3.43-1.027-5.197-1.392-3.39-.684-6.79-2.418-8.45-5.468-2.217-4.06-.762-9.163-2.035-13.62-.907-3.255-3.147-5.94-4.686-8.935-3.498-6.79-3.284-14.798-4.38-22.357-.472-3.21-1.19-6.395-1.204-9.642 0-2.395.236-6.943 2.75-8.167" class="B C"/><path id="s" d="M173.124 432.515c.358 3.97 1.19 8.654 4.816 10.32 2.05.943 4.435.593 6.66.958 4.2.677 7.62 3.9 9.6 7.68s2.614 8.068 3.048 12.296c.57 5.285.762 11.026-2.156 15.483-2.355 3.612-6.424 5.8-10.592 6.928a29.605 29.605 0 01-24.666-4.563c-3.452-2.502-6.302-5.726-9.075-8.95-6.043-7.02-12.123-14.715-13.365-23.886-.145-1.042-.13-2.28.762-2.92a3.2 3.2 0 011.943-.388l5.79.106c1.47 0 3.132 0 4.13-1.103s.937-2.487.9-3.802l-.442-16.768a2.405 2.405 0 01.38-1.696c.37-.332.838-.533 1.333-.57 3.193-.54 6.53 0 9.654-.867 2.972-.814 7.62-4.22 9.822-.722" class="B C"/><path id="u" d="M207.8 503.936a20.56 20.56 0 01-.632 2.669 62.62 62.62 0 01-2.438 6l-.96 2.464-.58 1.992-.503 2.373-.48 3.566H144.45a35.863 35.863 0 00-.328-8.745 57.44 57.44 0 00-3.566-11.597c-3.68-9.414-7.795-19.01-10.058-28.866a57.18 57.18 0 01-1.402-19.498l.152-1.156c.136-.987.322-1.967.556-2.935a16.16 16.16 0 013.68-7.437c2.59-2.783 6.972-4.16 10.333-2.38 2.027 1.072 3.284 2.973 4.3 5.08.64 1.338 1.18 2.753 1.745 4.1a41.82 41.82 0 008.748 13.042c.71.76 1.455 1.437 2.225 2.106s1.44 1.232 2.195 1.8c2.446 1.878 5.395 4.258 8.588 4.342 1.852.053 3.74 0 5.654 0 1.676 0 3.368-.068 5.037 0 3.574.068 7.62-.943 9.35-4.068 1.18-2.137.983-4.745.762-7.18l-.533-6.007-.38-4.114-.2-1.992-.137-1.475s.952-.106 1.92-.183c2.888-.228 5.837-.175 8.32 1.232 2.362 1.33 3.8 3.62 4.74 6.213a24.971 24.971 0 011.19 5.703c.853 8.63-.526 17.338-.053 25.992" class="B C"/><path id="v" d="M221 523h-17.472l-.328-5.94-.13-4.114s-.114-5.536.09-11.042a24.98 24.98 0 0011.24 3.2 21.215 21.215 0 013.8 6.03c.518 1.214.954 2.46 1.303 3.734a.096.096 0 010 .053" class="B C"/><path id="w" d="M219.468 511.114a81.46 81.46 0 00-19.583 2.586c-.846-4.167-.434-8.47 0-12.7l2.827-29.057c.206-2.152-.2-21.908 3.985-18.418 1.524 1.285 3.475 12.836 3.955 14.692.724 2.806 1.295 5.642 1.806 8.487 1.044 5.84 1.753 11.726 2.766 17.574" class="B C"/><path id="x" d="M166.975 381.246a3.815 3.815 0 00-.457-1.985 3.31 3.31 0 00-2.37-1.247c-3.193-.494-6.698.76-9.586-.67-1.524-.76-2.675-2.28-4.2-3.125-3.597-2.03-8.138 0-11.323 2.63a32.983 32.983 0 00-10.614 16.137c-1.417 4.882-1.99 10.593-6.043 13.688-1.676 1.278-3.8 1.985-5.067 3.688-.945 1.308-1.166 2.99-1.34 4.563-.42 3.71-.762 7.513.206 11.118.762 2.684 2.172 5.118 3.048 7.757a20.565 20.565 0 01-5.623 21.43 6.7 6.7 0 004.953.859 4.23 4.23 0 01-.716 2.182c5.182-.167 9.685-5.2 14.752-4.1 3.87.836 6.027 4.82 8.915 7.528 3.718 3.5 9.494 4.95 14.165 2.882s7.506-7.954 5.524-12.654c-2.286-5.323-9.212-7.46-11.628-12.745-1.867-4.1-.48-8.874-.884-13.353-.343-3.848-2.004-7.43-3.048-11.148s-1.372-7.97.762-11.21c2.24-3.437 6.53-4.776 10.432-6.084" class="B C"/><path id="y" d="M161.535 460.667c.632-3.042 1.257-6.365.145-9.308-2.073-5.5-8.847-7.2-13.533-10.737a18.258 18.258 0 01-6.02-8.007c-.853-2.228-.968-5.323 1.128-6.45a5.09 5.09 0 012.614-.456c7.3.167 14 4.13 19.59 8.814 3.254 2.73 6.347 5.855 7.97 9.772 1.15 2.776 1.524 5.802 1.852 8.783l1.143 9.886a154.58 154.58 0 011.318 17.087 75.23 75.23 0 01-.617 9.802c-.3 2.28-.762 4.684-2.08 6.578-2.53 3.52-7.39 4.312-11.735 4.433a20.31 20.31 0 01-4.9-.312c-7.216-1.567-12.687-11.65-7.23-17.878 2.286-2.646 5.806-2.715 7.125-6.342" class="B C"/><path id="z" d="M155.675 462.4l5.692 9.285a4.24 4.24 0 01.693 1.605c.16 1.21-.762 2.28-1.463 3.262-4.907 6.692-3.658 15.893-2.18 24.053-15.98-5.057-27.658-18.782-30.068-35.338-.716-4.86-1.874-12.86 2.446-16.023" class="B C"/><path id="AA" d="M184.6 443.792c-2.225-.365-4.572 0-6.66-.958-3.627-1.665-4.458-6.35-4.816-10.32 0-.365-.053-.76-.07-1.194a33.034 33.034 0 014.214-3.658 20.73 20.73 0 014.305-1.894l4.023-1.414c.37 1.067.66 2.16.87 3.27.45 2.662.076 5.445.762 8.06.602 2.38 2.012 4.464 3.398 6.487l5.928 8.646c-1.074-.25-2.14-.54-3.2-.844" class="B C"/><path id="AB" d="M379 335h212.48v187.58H379z" class="B"/><path id="AC" d="M483.63 388.55c4.48-1.097 7.96 6.357 12.47 5.472 2.478-.484 4.39-3.436 6.898-3.217 2.854.25 4.074 4.17 5.535 7.04 2.538 4.965 7.667 7.97 12.607 7.372 1.55-2.06 1.258-5.222.467-7.795s-1.996-5.07-2.026-7.81c-.038-3.625 1.943-7.636.15-10.596-1.378-2.27-4.195-2.452-6.266-3.852-1.62-1.1-2.756-2.914-4.112-4.405a13.563 13.563 0 00-8.382-4.427c-2.666-.303-5.347.272-7.983.848l-12.32 2.68a3.42 3.42 0 00-1.92.885 6.672 6.672 0 00-.994 2.535c-1.167 3.845-4.827 5.646-7.817 7.78s-5.83 6.357-4.18 9.952c.934 2.036 3.133 3.292 3.366 5.578.203 2.043-1.265 3.716-2.463 5.23-5.083 6.403 6.31 9.733 9.037 5.39" class="B C"/><path id="AD" d="M477.115 428.82c-1.07 1.4-2.463 2.566-3.32 4.1a9.494 9.494 0 00-.497 7.092 26.892 26.892 0 003.216 6.51 37.822 37.822 0 005.648 7.568 13.72 13.72 0 008.284 4.132c3.35.25 6.6-1.143 9.625-2.604a10.54 10.54 0 003.472-2.271 10.83 10.83 0 001.687-3.08l2.613-6.29a17.364 17.364 0 001.506-4.83c.27-2.61-.633-5.192-1.506-7.667l-4.782-13.222a4.47 4.47 0 00-1.145-2.006 4.315 4.315 0 00-1.762-.757 50.92 50.92 0 00-9.241-1.514c-2.32-.16-7.584-.984-9.6.333-1.86 1.22-1.084 4.322-1.303 6.327" class="B C"/><path id="AF" d="M539 457.096c-.008-.28-2.16 11.353-4.443 16.65s-5.18 10.528-7.41 15.97l-.527 1.332s-5.754 14.94-10.182 30.342l-.218.757h-64.69c2.952-11.353 5.483-22.705-1.597-30.538a16.15 16.15 0 01-.648-.757c-4.632-5.608-6.7-13.26-12.215-18.028-1.265-1.097-2.734-2.066-3.517-3.557a6.49 6.49 0 01-.663-2.952 20.14 20.14 0 01.166-2.694c.542-4.92 1.243-10.08 4.195-14.047a20.69 20.69 0 014.782-4.465 38.07 38.07 0 0113.337-5.987c5.392-1.24 11.342-1.423 15.74-4.806.925-.857 1.934-1.618 3.314-2.4a3.12 3.12 0 013.246.348 4.49 4.49 0 011.084 2.27l2.402 8.8a9.02 9.02 0 001.815 3.966c2.13 2.225 6.206 1.96 7.862 4.54.994 1.567 3.607-.257 4.745-1.7 2.758-3.5 5.143-7.3 7.117-11.307a18.18 18.18 0 012.636-4.412 5.96 5.96 0 012.907-1.771 3.913 3.913 0 011.672-.045c1.627.333 2.817 1.68 3.924 2.92a88.174 88.174 0 0023.15 18.505 3.84 3.84 0 011.694 1.408" class="B C"/><path id="AG" d="M485.88 387.482c3.487-.757 6.2 4.276 9.7 3.678 1.928-.318 3.42-2.27 5.362-2.157 2.222.167 3.17 2.8 4.308 4.723a10.4 10.4 0 009.79 4.957c1.205-1.385.98-3.504.36-5.237s-1.56-3.413-1.582-5.245c0-2.445 1.506-5.14.12-7.13-1.07-1.514-3.26-1.65-4.873-2.588-1.258-.757-2.14-1.96-3.2-2.96a11.112 11.112 0 00-6.514-2.974 22.05 22.05 0 00-6.206.568l-9.58 1.8a2.76 2.76 0 00-1.506.6 4.18 4.18 0 00-.753 1.703c-.91 2.588-3.765 3.784-6.078 5.23s-4.52 4.276-3.253 6.7c.753 1.37 2.433 2.2 2.613 3.784.166 1.37-.98 2.498-1.913 3.512-3.946 4.3 4.9 6.54 7.04 3.618" class="B C"/><path id="AH" d="M548.78 522.146h-17.615c.286-7.25-2.65-14.614-3.012-22.01-.136-2.778.098-5.6-.46-8.325a18.31 18.31 0 00-.565-2.096c-.444-1.4-.987-2.778-1.408-4.185-1.4-4.7-1.348-9.695-1.28-14.6l.256-16.227c0-1.408-.414-3.48.86-4.072 2.87-1.332 5.852 1.31 8.487 3.027 1.582 1.06 3.39 1.892 4.925 3.027a9.211 9.211 0 012.342 2.346 13.213 13.213 0 011.56 4.08s3.2 12.283 5.573 24.77a80.78 80.78 0 011.506 10.974" class="B C"/><path id="AI" d="M439.37 513.715c-.753 1.847-1.566 3.784-1.453 5.797a9.05 9.05 0 00.602 2.634H422.56c-.8-2.728-1.405-5.5-1.807-8.325-.753-5.48-.34-11.057.37-16.552a60.662 60.662 0 012.764-12.54c1.853-5.215 4.782-9.937 7.275-14.842.587-1.143 1.122-2.43 1.747-3.565 1.34-2.5 3.073-4.322 6.522-2.65 8.578 4.155 12.26 18.71 9.873 27.254.004-.046-1.53 4.245-2.545 6.26" class="B C"/><ellipse id="E" rx="31.524" ry="31.536" cx="815.101" cy="167.817" class="B"/><ellipse id="R" rx="11.222" ry="11.227" cx="31.507" cy="29.064" class="B"/><ellipse id="S" rx="11.222" ry="11.227" cx="61.229" cy="29.064" class="B"/><ellipse id="T" rx="11.222" ry="11.227" cx="90.952" cy="29.064" class="B"/><ellipse id="X" rx="20.942" ry="20.993" cx="188.333" cy="169.696" class="B"/><ellipse id="e" rx="11.602" ry="11.63" cx="188.68" cy="137.312" class="B"/><ellipse id="i" rx="21.116" ry="21.167" cx="482.186" cy="156.861" class="B"/><ellipse id="t" rx="22.136" ry="22.091" cx="159.036" cy="410.015" class="B"/><ellipse id="AE" rx="20.861" ry="20.964" cx="493.255" cy="405.42" class="B"/></defs><g class="G"><use xlink:href="#A"/><use xlink:href="#B"/><use xlink:href="#C"/></g><use xlink:href="#D" class="E"/><g class="G"><use xlink:href="#E"/><use xlink:href="#F"/></g><g fill="#d0cde1"><use xlink:href="#G"/><use xlink:href="#H"/></g><g class="E"><use xlink:href="#I"/><use xlink:href="#J"/><use xlink:href="#K"/><use xlink:href="#L"/></g><use xlink:href="#M" class="G"/><use xlink:href="#N" fill="#d0cde1"/><use xlink:href="#O" class="E"/><use xlink:href="#P" fill="#f2f2f2"/><use xlink:href="#Q" class="F"/><g class="D"><use xlink:href="#R"/><use xlink:href="#S"/><use xlink:href="#T"/></g><use xlink:href="#U" class="F"/><use xlink:href="#V" fill="#fff"/><use xlink:href="#W" class="E"/><g fill="#a0616a"><use xlink:href="#X"/><use xlink:href="#Y"/><use xlink:href="#Z"/><use xlink:href="#a"/></g><use xlink:href="#b" class="D"/><use xlink:href="#c" class="E"/><use xlink:href="#d" class="F"/><g class="E"><use xlink:href="#e"/><use xlink:href="#f"/><use xlink:href="#g"/></g><use xlink:href="#h" fill="#fff"/><g class="G"><use xlink:href="#i"/><use xlink:href="#j"/></g><use xlink:href="#k" class="D"/><use xlink:href="#l" class="G"/><g class="E"><use xlink:href="#m"/><use xlink:href="#n"/></g><g class="D"><use xlink:href="#o"/><use xlink:href="#p"/></g><use xlink:href="#q" fill="#fff"/><use xlink:href="#r" class="F"/><use xlink:href="#s" class="H"/><use xlink:href="#t" opacity=".1" href="#s"/><use xlink:href="#t" class="H"/><use xlink:href="#u" class="D"/><use xlink:href="#v" class="H"/><use xlink:href="#w" class="D"/><use xlink:href="#x" class="F"/><use xlink:href="#y" class="H"/><use xlink:href="#z" class="D"/><use xlink:href="#AA" class="F"/><use xlink:href="#AB" fill="#fff"/><use xlink:href="#AC" fill="#3c354c"/><use xlink:href="#AD" fill="#a0616a"/><use xlink:href="#AF" opacity=".1" href="#AD"/><use xlink:href="#AE" fill="#9d6069"/><use xlink:href="#AF" class="D"/><use xlink:href="#AG" fill="#3c354c"/><g class="D"><use xlink:href="#AH"/><use xlink:href="#AI"/></g></svg>