<svg xmlns="http://www.w3.org/2000/svg" xmlns:xlink="http://www.w3.org/1999/xlink" height="741.038" width="937.461"><defs><path id="a" opacity="1" fill-rule="evenodd" d="M773.22 668.338l.9 21.624v18.922h23.418v-40.546h-24.319z"/><path id="b" opacity="1" fill-rule="evenodd" d="M902.017 648.515l.9 21.625v18.921h23.418l-4.503-44.15-19.815 3.604z"/><path id="c" opacity="1" fill-rule="evenodd" d="M878.6 298.015l-7.206 56.765-23.418 67.577-10.808-38.744 13.51-24.328-2.702-51.358 30.623-9.912z"/><path id="d" opacity="1" fill-rule="evenodd" d="M765.431 293.228s-19.815 35.14-17.113 38.744c2.702 3.604 4.504 23.426 4.504 23.426h7.5l12.315-30.635"/><path id="f" opacity="1" fill-rule="evenodd" d="M802.81 193.664s17.112 23.427 11.708 35.14c-5.404 11.713 52.24-6.307 52.24-6.307s-28.822-32.437-29.723-43.25"/><path id="g" opacity="1" fill-rule="evenodd" d="M866.758 298.183c-2.027 3.046-4.017 6.443-5.945 10.029-.91 1.702-1.801 3.45-2.684 5.217-10.466 21.102-18.392 46.024-18.392 46.024l-83.763-2.703 2.603-7.64 11.808-34.708c-20.716-12.615-.9-36.942 9.908-59.468 9.925-20.688 30.497-34.446 33.775-36.555.297-.18.45-.28.829-.342l15.032-2.532 27.083-4.56a37.416 37.416 0 0113.42 5.046 27.11 27.11 0 018.476 8.488c3.288 5.226 4.828 11.515 5.107 18.246"/><path id="h" opacity="1" fill-rule="evenodd" d="M871.712 223.848s16.212 18.922 17.113 35.14c.9 16.219-2.703 46.854-10.809 46.854s-22.517 5.406-21.616 0"/><path id="i" opacity="1" fill-rule="evenodd" d="M856.4 258.087l-9.907 1.802c-3.36-26.913-22.797-37.753-32.425-41.51.297-.18.45-.28.45-.28l.379-.062 15.032-2.532"/><path id="j" opacity="1" fill-rule="evenodd" d="M923.951 645.53c-.9 5.405-27.02 15.317-34.226 14.416-7.205-.901-78.359-174.8-78.359-174.8s0 193.721-1.801 197.325c-1.802 3.605-32.425 0-43.233-12.614s-18.014-209.94-22.517-243.277c-4.503-33.338 9.007-76.588 9.007-76.588l5.755-.883 17.662-2.72s0-4.506 27.02-26.13c27.021-21.625 43.234-60.37 43.234-60.37l2.702-5.406 7.205 3.604c7.728-14.299 12.565-28.355 14.033-42.096a27.11 27.11 0 018.475 8.488 178.192 178.192 0 00-2.072 6.127c-6.07 18.913-12.951 48.205-19.796 77.047-.217.901-.424 1.802-.64 2.694.652.983 1.23 2.013 1.73 3.082 1.819 3.847 3.746 10.388-1.73 14.038-8.106 5.406-10.808 32.437-10.808 32.437 15.311 13.515 18.914 77.488 17.113 81.993-1.802 4.505-1.802 3.604 2.702 6.307 4.503 2.703 4.503 25.23 4.503 25.23"/><path id="k" opacity="1" fill-rule="evenodd" d="M786.147 698.69s-5.404 5.406-9.007 2.703c-3.603-2.703-3.744-14.202-3.744-14.202s-41.29-3.819-33.184 23.212c8.106 27.031 64.85 30.635 66.65 25.229 1.802-5.406-6.304-39.645-6.304-39.645"/><path id="l" opacity="1" fill-rule="evenodd" d="M914.944 678.867s-5.404 5.406-9.007 2.703c-3.602-2.703-3.743-14.202-3.743-14.202s-41.29-3.818-33.184 23.213c8.106 27.03 64.849 30.635 66.65 25.228 1.801-5.406-6.305-39.645-6.305-39.645"/><path id="m" opacity="1" fill-rule="evenodd" d="M788.849 277.91l-3.603 47.754-45.934 51.36s-15.312 7.207-6.305 19.822c9.007 12.614 12.61 13.515 12.61 13.515l.9-16.218 62.147-49.557 6.305-66.676"/><path id="n" opacity="1" fill-rule="evenodd" d="M817.67 258.087s3.603-40.546-14.41-36.942c-18.014 3.604-18.914 20.724-18.914 20.724s-8.107 41.447-.901 43.25c7.205 1.801 31.524 5.405 34.226 0"/><path id="o" opacity="1" fill-rule="evenodd" d="M895.693 194.979c-3.508-1.738-11.253-5.245-17.851-9.47.462-13.747-1.23-26.225-6.183-32.84-2.78-6.315-8.618-12.637-13.19-17.616-11.23-12.228-36.06-19.053-40.463-12.944-33.309.658-36.815 26.777-36.815 26.777.173 10.925 11.523 11.27 21.466 10.872-.89 7.458 1.482 15.208 8.353 18.645 13.139 6.572 17.08 15.116 10.511 21.03-6.57 5.915-18.395 21.688-2.628 25.632 15.767 3.943 17.738 11.83 13.14 15.115-4.6 3.286 10.51-5.915 10.51-5.915s2.628 15.773 16.425 11.83a8.298 8.298 0 003.686-2.613c3.726 4.096 7.05 6.517 9.556 6.53 14.347.077 12.627-15.82 12.627-15.82s17.03 4.784 11.716 2.86c-5.314-1.924-5.542-10.05 8.579-18.1"/><path id="q" opacity="1" fill-rule="evenodd" d="M693 573H0V0l481.488 2.729H1.883V570.27h689.234L693 321.53V573z"/><path id="w" opacity="1" fill-rule="evenodd" d="M212.097 150.393c-8.11-13.738-24.157-14.378-24.157-14.378s-15.636-2.004-25.666 18.919c-9.35 19.501-22.253 38.33-2.078 42.896l3.644-11.37 2.257 12.216c2.873.208 5.755.257 8.632.148 21.606-.699 42.183.205 41.52-7.567"/><path id="y" opacity="1" fill-rule="evenodd" d="M180.99 182.146s9.518 22.265-3.174 26.718l12.692 41.986 21.577-1.273 5.711-13.995-1.269-20.993-1.904-13.995s-13.327 3.18-12.057-20.357"/><path id="z" opacity="1" fill-rule="evenodd" d="M175.912 208.228s-20.942-1.909-19.038 13.359c1.904 15.267 3.808 18.448 3.808 18.448l1.904 22.901-11.423 6.998h-10.789s-33 7.634-16.5 15.904 22.212-6.362 22.212-6.362 30.46 0 32.365-5.089"/><path id="A" opacity="1" fill-rule="evenodd" d="M216.527 201.866s19.673-6.997 20.942 8.27c1.27 15.268 1.27 16.54 1.27 16.54l3.807 21.629s7.615 19.084 7.615 24.81c0 5.725 5.712 23.537 5.712 23.537s7.615 24.81-.635 24.174c-8.25-.636-9.52-26.718-9.52-26.718l-17.134-34.352-5.076-20.993"/><path id="B" opacity="1" fill-rule="evenodd" d="M179.085 205.683h-5.077l-.634 26.718s-8.25 11.451 1.904 21.63l2.538 16.54 46.326-1.91 3.173-17.175s6.346-13.996-2.538-26.718l-8.25-26.083h-4.442s10.288 38.028-11.423 38.805"/><path id="C" opacity="1" fill-rule="evenodd" d="M237.167 297.357h-66.599a1924.617 1924.617 0 015.98-17.241c-.012.03 1.543-5.157 1.543-5.157l.641-2.137.693-2.317.932-3.116 41.243-1.27 1.156 2.6 3.922 8.849c.341.101.666.255.961.455"/><path id="D" opacity="1" fill-rule="evenodd" d="M226.046 261.028l-50.134 1.908s-2.288 17.176 0 17.176c.635 0 52.673 4.453 52.038-3.18"/><path id="F" opacity="1" fill-rule="evenodd" d="M177.08 133.024c.001-5.949 4.48-10.939 10.382-11.565a11.598 11.598 0 00-11.473 6.105 11.655 11.655 0 00.63 11.97 11.592 11.592 0 0010.843 5.055"/><path id="G" opacity="1" fill-rule="evenodd" d="M207.287 150.296l-15.852-8.324-21.893 3.405-4.529 20.054 11.275-.434 3.15-7.368v7.246l5.203-.2 3.02-11.73 1.886 12.486 18.495-.378-.755-14.757z"/><path id="J" opacity="1" fill-rule="evenodd" d="M471.858 173.688s2.64 12.568 2.64 13.891c0 1.323 12.537 7.276 12.537 7.276l11.218-1.984 3.96-11.907s-6.6-9.922-6.6-13.891"/><path id="K" opacity="1" fill-rule="evenodd" d="M528.755 299.208l2.721-4.993.433-.8-5.279-56.223.314-2.541 5.62-45.746-32.55-11.472a13.683 13.683 0 01-9.676 12.795c-9.901 3.303-16.715-7.818-16.715-7.818l-27.503 21.046 13.36 38.833 6.441 18.714s.656 21.83 1.32 23.818c.656 1.98-.664 2.646-1.32 3.303-.663.665.656 2.646 1.32 2.646.328 0 .984 2.481 1.566 4.962a143.5 143.5 0 01.768 3.476"/><path id="L" opacity="1" fill-rule="evenodd" d="M574.057 284.795S590 294.91 588.23 301.455c-1.772 6.545-20.077-11.305-20.077-11.9"/><path id="M" opacity="1" fill-rule="evenodd" d="M528.755 299.208h4.966l-1.484-5.464c-.245.17-.5.327-.76.471-1.946 1.106-7.754 3.879-18.721 4.993-6.844.638-13.733.638-20.577 0a179.712 179.712 0 01-22.634-3.476h-1.32l-.738 3.476"/><path id="N" opacity="1" fill-rule="evenodd" d="M461.795 140.427s6.704-14.561 19.554-11.2c12.85 3.36 20.112 8.4 20.671 13.44.559 5.041-.28 12.602-.28 12.602s-1.396-10.361-10.335-8.121-22.906.56-22.906.56l-2.235 20.162s-2.514-3.64-5.308-1.4"/><path id="O" opacity="1" fill-rule="evenodd" d="M460.956 299.208h-18.161l-1.29-2.482c-7.918-13.893-7.918-33.078-7.918-33.078l4.615-39.027c-.656-13.893 7.918-21.165 7.918-21.165h9.9l7.262 24.476-3.802 14.357-4.779 18.056-1.32 1.98s1.32 1.988.657 2.646c-.657.665-1.32 3.31-1.32 3.31s1.983 13.23 3.966 14.552c1.976 1.323-.663 1.323-.663 1.988 0 .658 1.983 3.303 1.983 3.303v3.311"/><path id="P" opacity="1" fill-rule="evenodd" d="M521.21 186.918l10.038 1.785s5.904 5.95 8.266 13.09l4.724 21.42 7.676 15.47s8.857 8.925 15.353 29.155l9.447 17.85-10.038 5.95s-27.752-32.725-31.295-44.03l-15.352-29.75"/><path id="R" opacity="1" fill-rule="evenodd" d="M170.51 378.12a7.707 7.707 0 014.077 3.453c.694 1.437.67 3.118 1.143 4.646.999 3.217 4 5.323 5.868 8.137 2.53 3.802 2.827 8.646 2.651 13.209-.175 4.562-.762 9.216.381 13.65.541 2.16 1.463 4.213 1.837 6.41.45 2.662.076 5.445.762 8.061.602 2.38 2.011 4.464 3.398 6.487l5.928 8.646a68.554 68.554 0 01-7.825-2.35 14.005 14.005 0 004.229 6.38l-4.282-5.17a12.273 12.273 0 00-3.193-3.043c-1.57-.89-3.43-1.026-5.197-1.391-3.39-.685-6.79-2.418-8.45-5.468-2.218-4.06-.762-9.163-2.035-13.62-.907-3.254-3.147-5.938-4.686-8.935-3.498-6.79-3.284-14.798-4.382-22.357-.472-3.209-1.188-6.395-1.203-9.642 0-2.395.236-6.943 2.75-8.167"/><path id="S" opacity="1" fill-rule="evenodd" d="M173.124 432.515c.359 3.97 1.19 8.654 4.816 10.32 2.05.942 4.435.592 6.66.957 4.198.677 7.62 3.901 9.6 7.68 1.982 3.78 2.615 8.07 3.049 12.297.571 5.285.762 11.027-2.157 15.483-2.354 3.612-6.423 5.81-10.591 6.927a29.606 29.606 0 01-24.666-4.562c-3.451-2.502-6.301-5.726-9.075-8.95-6.043-7.02-12.123-14.715-13.365-23.886-.145-1.042-.13-2.282.762-2.92a3.198 3.198 0 011.943-.388l5.791.106c1.47 0 3.132 0 4.13-1.102.998-1.103.937-2.487.9-3.803 0 0-.222-8.364-.443-16.767a2.407 2.407 0 01.381-1.696 2.243 2.243 0 011.334-.57c3.192-.54 6.53 0 9.654-.867 2.972-.814 7.62-4.22 9.822-.723"/><path id="T" opacity="1" fill-rule="evenodd" d="M173.124 432.515c.359 3.97 1.19 8.654 4.816 10.32 2.05.942 4.435.592 6.66.957 4.198.677 7.62 3.901 9.6 7.68 1.982 3.78 2.615 8.07 3.049 12.297.571 5.285.762 11.027-2.157 15.483-2.354 3.612-6.423 5.81-10.591 6.927a29.606 29.606 0 01-24.666-4.562c-3.451-2.502-6.301-5.726-9.075-8.95-6.043-7.02-12.123-14.715-13.365-23.886-.145-1.042-.13-2.282.762-2.92a3.198 3.198 0 011.943-.388l5.791.106c1.47 0 3.132 0 4.13-1.102.998-1.103.937-2.487.9-3.803 0 0-.222-8.364-.443-16.767a2.407 2.407 0 01.381-1.696 2.243 2.243 0 011.334-.57c3.192-.54 6.53 0 9.654-.867 2.972-.814 7.62-4.22 9.822-.723"/><path id="V" opacity="1" fill-rule="evenodd" d="M207.81 503.936a20.558 20.558 0 01-.632 2.669 62.618 62.618 0 01-2.439 6c-.35.813-.678 1.627-.96 2.464a25.882 25.882 0 00-.579 1.992 34.59 34.59 0 00-.503 2.373 50.742 50.742 0 00-.48 3.566h-57.766a35.867 35.867 0 00-.328-8.745 57.442 57.442 0 00-3.566-11.597c-3.68-9.414-7.795-19.01-10.058-28.866a57.18 57.18 0 01-1.402-19.498c.045-.38.099-.76.152-1.156.136-.987.322-1.967.556-2.935a16.162 16.162 0 013.68-7.437c2.592-2.784 6.973-4.16 10.333-2.38 2.027 1.072 3.285 2.973 4.29 5.08.64 1.338 1.181 2.752 1.745 4.098a41.819 41.819 0 008.748 13.042c.709.76 1.455 1.437 2.225 2.106.77.67 1.44 1.232 2.194 1.81 2.446 1.878 5.395 4.258 8.588 4.342 1.852.053 3.741 0 5.654 0 1.676 0 3.368-.068 5.037 0 3.573.069 7.62-.943 9.35-4.068 1.18-2.137.982-4.745.761-7.179-.175-1.901-.35-3.802-.533-6.007-.122-1.377-.252-2.738-.381-4.114-.061-.662-.122-1.331-.19-1.993l-.138-1.475s.953-.106 1.92-.183c2.888-.228 5.837-.174 8.321 1.232 2.362 1.331 3.81 3.62 4.74 6.213a24.914 24.914 0 011.189 5.704c.853 8.63-.526 17.338-.054 25.991"/><path id="W" opacity="1" fill-rule="evenodd" d="M221 523h-17.472a154.17 154.17 0 01-.328-5.939 148.305 148.305 0 01-.13-4.114s-.114-5.536.092-11.042a24.993 24.993 0 0011.24 3.202 21.476 21.476 0 013.81 6.03 29.214 29.214 0 011.302 3.734.106.106 0 010 .053"/><path id="X" opacity="1" fill-rule="evenodd" d="M219.468 511.114a81.46 81.46 0 00-19.583 2.586c-.845-4.167-.434-8.472 0-12.7l2.827-29.056c.206-2.152-.19-21.908 3.986-18.418 1.523 1.285 3.474 12.836 3.954 14.692.724 2.806 1.296 5.642 1.806 8.486 1.044 5.84 1.753 11.726 2.766 17.574"/><path id="Y" opacity="1" fill-rule="evenodd" d="M166.975 381.246a3.796 3.796 0 00-.457-1.985 3.309 3.309 0 00-2.37-1.247c-3.193-.494-6.698.76-9.586-.67-1.524-.76-2.674-2.28-4.198-3.125-3.597-2.03-8.138 0-11.323 2.632a32.983 32.983 0 00-10.615 16.136c-1.417 4.882-1.989 10.593-6.042 13.688-1.677 1.278-3.81 1.985-5.068 3.688-.944 1.308-1.165 2.989-1.34 4.563-.42 3.71-.763 7.513.205 11.118.762 2.684 2.172 5.117 3.048 7.756a20.565 20.565 0 01-5.623 21.43 6.702 6.702 0 004.952.859 4.23 4.23 0 01-.716 2.182c5.182-.167 9.685-5.201 14.752-4.099 3.871.837 6.028 4.822 8.916 7.529 3.718 3.49 9.494 4.95 14.165 2.882 4.67-2.069 7.505-7.954 5.524-12.654-2.286-5.323-9.212-7.46-11.628-12.745-1.867-4.099-.48-8.874-.884-13.353-.342-3.848-2.004-7.43-3.047-11.148-1.044-3.719-1.372-7.97.761-11.21 2.24-3.437 6.53-4.775 10.432-6.083"/><path id="Z" opacity="1" fill-rule="evenodd" d="M161.535 460.667c.632-3.042 1.257-6.365.144-9.308-2.072-5.49-8.846-7.202-13.533-10.738a18.254 18.254 0 01-6.02-8.007c-.853-2.228-.967-5.323 1.128-6.449a5.092 5.092 0 012.614-.456c7.3.167 13.99 4.13 19.59 8.814 3.254 2.73 6.348 5.855 7.971 9.771 1.15 2.776 1.524 5.802 1.852 8.783l1.143 9.886a154.663 154.663 0 011.318 17.087 75.247 75.247 0 01-.617 9.802c-.29 2.282-.762 4.685-2.08 6.578-2.53 3.521-7.392 4.312-11.735 4.434a20.31 20.31 0 01-4.9-.312c-7.216-1.567-12.687-11.65-7.23-17.878 2.285-2.647 5.805-2.715 7.124-6.342"/><path id="aa" opacity="1" fill-rule="evenodd" d="M155.675 462.4l5.692 9.285c.34.481.576 1.028.693 1.605.16 1.209-.762 2.281-1.463 3.262-4.907 6.692-3.657 15.893-2.179 24.053-15.98-5.057-27.658-18.782-30.068-35.338-.716-4.859-1.874-12.859 2.446-16.022"/><path id="ab" opacity="1" fill-rule="evenodd" d="M184.6 443.792c-2.225-.365-4.572 0-6.66-.958-3.627-1.665-4.457-6.35-4.816-10.32 0-.364-.053-.76-.068-1.193a33.074 33.074 0 014.214-3.658 20.732 20.732 0 014.305-1.893l4.023-1.415c.37 1.068.66 2.16.869 3.27.45 2.662.076 5.445.762 8.061.602 2.38 2.011 4.464 3.398 6.487l5.928 8.646a65.974 65.974 0 01-3.2-.844"/><path id="ad" opacity="1" fill-rule="evenodd" d="M483.63 388.55c4.48-1.098 7.96 6.357 12.47 5.471 2.478-.484 4.391-3.436 6.9-3.217 2.853.25 4.073 4.17 5.534 7.039 2.538 4.965 7.667 7.97 12.607 7.372 1.552-2.059 1.258-5.223.467-7.796-.79-2.573-1.995-5.07-2.026-7.81-.037-3.626 1.943-7.637.151-10.596-1.378-2.27-4.195-2.452-6.266-3.852-1.619-1.09-2.756-2.914-4.112-4.405a13.572 13.572 0 00-8.382-4.428c-2.666-.302-5.347.273-7.983.848l-12.32 2.68a3.42 3.42 0 00-1.92.885 6.687 6.687 0 00-.995 2.535c-1.167 3.845-4.827 5.646-7.817 7.78-2.99 2.135-5.829 6.358-4.18 9.953.934 2.036 3.133 3.292 3.367 5.578.203 2.043-1.266 3.716-2.463 5.23-5.083 6.402 6.311 9.732 9.037 5.388"/><path id="ae" opacity="1" fill-rule="evenodd" d="M477.115 428.82c-1.07 1.4-2.463 2.566-3.321 4.11a9.496 9.496 0 00-.497 7.091 26.846 26.846 0 003.216 6.51 37.827 37.827 0 005.648 7.568 13.719 13.719 0 008.284 4.132c3.351.25 6.59-1.143 9.625-2.604a10.538 10.538 0 003.471-2.27 10.831 10.831 0 001.687-3.08l2.614-6.29a17.386 17.386 0 001.506-4.828c.27-2.611-.633-5.192-1.506-7.667l-4.783-13.222a4.47 4.47 0 00-1.144-2.006 4.304 4.304 0 00-1.763-.756 50.919 50.919 0 00-9.24-1.514c-2.32-.159-7.584-.984-9.61.333-1.86 1.218-1.084 4.321-1.303 6.327"/><path id="af" opacity="1" fill-rule="evenodd" d="M477.115 428.82c-1.07 1.4-2.463 2.566-3.321 4.11a9.496 9.496 0 00-.497 7.091 26.846 26.846 0 003.216 6.51 37.827 37.827 0 005.648 7.568 13.719 13.719 0 008.284 4.132c3.351.25 6.59-1.143 9.625-2.604a10.538 10.538 0 003.471-2.27 10.831 10.831 0 001.687-3.08l2.614-6.29a17.386 17.386 0 001.506-4.828c.27-2.611-.633-5.192-1.506-7.667l-4.783-13.222a4.47 4.47 0 00-1.144-2.006 4.304 4.304 0 00-1.763-.756 50.919 50.919 0 00-9.24-1.514c-2.32-.159-7.584-.984-9.61.333-1.86 1.218-1.084 4.321-1.303 6.327"/><path id="ah" opacity="1" fill-rule="evenodd" d="M538.99 457.096c-.008-.28-2.162 11.352-4.444 16.65-2.281 5.298-5.18 10.528-7.41 15.97-.18.438-.354.885-.527 1.331 0 0-5.754 14.94-10.182 30.342l-.218.757h-64.692c2.952-11.353 5.483-22.705-1.596-30.539a16.15 16.15 0 01-.648-.756c-4.632-5.609-6.71-13.26-12.215-18.028-1.265-1.098-2.734-2.066-3.517-3.557a6.49 6.49 0 01-.663-2.952c-.005-.9.05-1.801.166-2.694.542-4.92 1.242-10.081 4.194-14.047a20.69 20.69 0 014.783-4.466 38.068 38.068 0 0113.337-5.986c5.392-1.241 11.342-1.423 15.74-4.806.925-.857 1.934-1.618 3.313-2.4a3.12 3.12 0 013.246.349c.57.637.946 1.425 1.085 2.27 0 0 1.197 4.405 2.402 8.81a9.02 9.02 0 001.815 3.966c2.131 2.225 6.206 1.96 7.863 4.54.994 1.567 3.607-.256 4.744-1.71a64.225 64.225 0 007.117-11.307 18.182 18.182 0 012.636-4.412 5.96 5.96 0 012.907-1.771 3.897 3.897 0 011.672-.045c1.626.333 2.816 1.68 3.923 2.92a88.186 88.186 0 0023.15 18.506c.69.292 1.279.782 1.695 1.407"/><path id="ai" opacity="1" fill-rule="evenodd" d="M485.881 387.482c3.487-.757 6.19 4.276 9.7 3.678 1.928-.318 3.42-2.27 5.362-2.157 2.222.167 3.17 2.8 4.308 4.723a10.4 10.4 0 009.79 4.957c1.205-1.385.98-3.504.362-5.237s-1.56-3.413-1.582-5.245c0-2.445 1.506-5.139.12-7.13-1.069-1.513-3.26-1.65-4.872-2.588-1.258-.757-2.139-1.96-3.2-2.959a11.114 11.114 0 00-6.515-2.974 22.05 22.05 0 00-6.205.567l-9.58 1.801a2.824 2.824 0 00-1.506.59 4.18 4.18 0 00-.753 1.704c-.911 2.588-3.766 3.784-6.078 5.23-2.312 1.445-4.518 4.276-3.253 6.69.753 1.37 2.432 2.21 2.613 3.784.166 1.37-.979 2.498-1.913 3.512-3.946 4.299 4.91 6.539 7.042 3.617"/><path id="aj" opacity="1" fill-rule="evenodd" d="M548.78 522.146h-17.615c.286-7.25-2.65-14.615-3.012-22.01-.136-2.777.098-5.6-.46-8.324-.146-.71-.335-1.41-.565-2.097-.444-1.4-.986-2.777-1.408-4.185-1.4-4.7-1.348-9.695-1.28-14.6 0 0 .12-8.12.256-16.226 0-1.408-.414-3.481.858-4.072 2.87-1.332 5.852 1.31 8.488 3.028 1.581 1.06 3.389 1.892 4.925 3.027a9.226 9.226 0 012.342 2.346 13.193 13.193 0 011.56 4.08s3.2 12.283 5.572 24.77a80.782 80.782 0 011.506 10.975"/><path id="ak" opacity="1" fill-rule="evenodd" d="M439.37 513.715c-.753 1.846-1.567 3.784-1.454 5.797a9.04 9.04 0 00.603 2.634H422.56a59.415 59.415 0 01-1.808-8.325c-.753-5.48-.339-11.058.37-16.552a60.674 60.674 0 012.763-12.541c1.853-5.215 4.782-9.937 7.275-14.842.587-1.143 1.122-2.43 1.747-3.564 1.34-2.49 3.073-4.322 6.522-2.65 8.578 4.156 12.26 18.71 9.873 27.254.004-.045-1.53 4.245-2.545 6.26"/><ellipse id="e" opacity="1" rx="31.524" ry="31.536" cx="815.101" cy="167.817"/><ellipse id="r" opacity="1" rx="11.222" ry="11.227" cx="31.507" cy="29.064"/><ellipse id="s" opacity="1" rx="11.222" ry="11.227" cx="61.229" cy="29.064"/><ellipse id="t" opacity="1" rx="11.222" ry="11.227" cx="90.952" cy="29.064"/><ellipse id="x" opacity="1" rx="20.942" ry="20.993" cx="188.333" cy="169.696"/><ellipse id="E" opacity="1" rx="11.602" ry="11.63" cx="188.68" cy="137.312"/><ellipse id="I" opacity="1" rx="21.116" ry="21.167" cx="482.186" cy="156.861"/><ellipse id="U" opacity="1" rx="22.136" ry="22.091" cx="159.036" cy="410.015"/><ellipse id="ag" opacity="1" rx="20.861" ry="20.964" cx="493.255" cy="405.42"/><rect id="p" opacity="1" x=".727" y="1.029" width="692.273" height="571.971" rx="0" ry="0"/><rect id="u" opacity="1" x="90.969" y="59.005" width="501.679" height="1.802" rx="0" ry="0"/><rect id="v" opacity="1" x="87" y="111" width="212.478" height="187.58" rx="0" ry="0"/><rect id="H" opacity="1" x="386" y="111" width="212.48" height="187.582" rx="0" ry="0"/><rect id="Q" opacity="1" x="85" y="335" width="212.48" height="187.58" rx="0" ry="0"/><rect id="ac" opacity="1" x="379" y="335" width="212.48" height="187.58" rx="0" ry="0"/></defs><use xlink:href="#a" fill="#FFB9B9"/><use xlink:href="#b" fill="#FFB9B9"/><use xlink:href="#c" fill="#FFB9B9"/><use xlink:href="#d" fill="#2F2E41"/><use xlink:href="#e" fill="#FFB9B9"/><use xlink:href="#f" fill="#FFB9B9"/><use xlink:href="#g" fill="#D0CDE1"/><use xlink:href="#h" fill="#D0CDE1"/><use xlink:href="#i" fill="#2F2E41"/><use xlink:href="#j" fill="#2F2E41"/><use xlink:href="#k" fill="#2F2E41"/><use xlink:href="#l" fill="#2F2E41"/><use xlink:href="#m" fill="#FFB9B9"/><use xlink:href="#n" fill="#D0CDE1"/><use xlink:href="#o" fill="#2F2E41"/><use xlink:href="#p" fill="#F2F2F2"/><use xlink:href="#q" fill="#3F3D56"/><use xlink:href="#r" fill="#4285F4"/><use xlink:href="#s" fill="#4285F4"/><use xlink:href="#t" fill="#4285F4"/><use xlink:href="#u" fill="#3F3D56"/><use xlink:href="#v" fill="#FFF"/><use xlink:href="#w" fill="#2F2E41"/><use xlink:href="#x" fill="#A0616A"/><use xlink:href="#y" fill="#A0616A"/><use xlink:href="#z" fill="#A0616A"/><use xlink:href="#A" fill="#A0616A"/><use xlink:href="#B" fill="#4285F4"/><use xlink:href="#C" fill="#2F2E41"/><use xlink:href="#D" fill="#3F3D56"/><use xlink:href="#E" fill="#2F2E41"/><use xlink:href="#F" fill="#2F2E41"/><use xlink:href="#G" fill="#2F2E41"/><use xlink:href="#H" fill="#FFF"/><use xlink:href="#I" fill="#FFB9B9"/><use xlink:href="#J" fill="#FFB9B9"/><use xlink:href="#K" fill="#4285F4"/><use xlink:href="#L" fill="#FFB9B9"/><use xlink:href="#M" fill="#2F2E41"/><use xlink:href="#N" fill="#2F2E41"/><use xlink:href="#O" fill="#4285F4"/><use xlink:href="#P" fill="#4285F4"/><use xlink:href="#Q" fill="#FFF"/><use xlink:href="#R" fill="#3F3D56"/><use xlink:href="#S" fill="#FFC1C7"/><use xlink:href="#T" opacity=".1"/><use xlink:href="#U" fill="#FFC1C7"/><use xlink:href="#V" fill="#4285F4"/><use xlink:href="#W" fill="#FFC1C7"/><use xlink:href="#X" fill="#4285F4"/><use xlink:href="#Y" fill="#3F3D56"/><use xlink:href="#Z" fill="#FFC1C7"/><use xlink:href="#aa" fill="#4285F4"/><use xlink:href="#ab" fill="#3F3D56"/><use xlink:href="#ac" fill="#FFF"/><use xlink:href="#ad" fill="#3C354C"/><use xlink:href="#ae" fill="#A0616A"/><use xlink:href="#af" opacity=".1"/><use xlink:href="#ag" fill="#9D6069"/><use xlink:href="#ah" fill="#4285F4"/><use xlink:href="#ai" fill="#3C354C"/><use xlink:href="#aj" fill="#4285F4"/><use xlink:href="#ak" fill="#4285F4"/></svg>