<svg xmlns="http://www.w3.org/2000/svg" width="1109.871" height="651"><style>.B{fill:#2f2e41}.C{fill:#d0cde1}.D{fill:#a0616a}.E{fill:#3f3d56}.F{fill:#ffb8b8}</style><path d="M871.698 18.238c-26.542 0-48.058 23.878-48.058 53.334v37.424h11.5l6.663-13.866-1.666 13.866h73.98l6.058-12.605-1.514 12.605H927V79.61c0-33.896-24.76-61.373-55.302-61.373z" class="B"/><ellipse ry="35" rx="521.442" cy="616" cx="588.429" class="E"/><path d="M848.5 85.5s15 35-5 42l20 66 34-2 9-22-2-33-3-22s-21 5-19-32l-34 3zm-8 41s-33-3-30 21 6 29 6 29l3 36-18 11h-17s-52 12-26 25 35-10 35-10 48 0 51-8-4-104-4-104zm64-10s31-11 33 13l2 26 6 34s12 30 12 39 9 37 9 37 12 39-1 38-15-42-15-42l-27-54-8-33-11-58z" class="F"/><path fill="#23b5d3" d="M845.5 122.5h-8l-1 42s-13 18 3 34l4 26 73-3 5-27s10-22-4-42l-13-41h-7s16.213 59.778-18 61c-28 1-34-50-34-50z"/><path d="M847.5 219.5l-6 20s-125 352-87 361 91 21 96 12 31-272 31-272-4 275 9 275 99 2 104-11-45-361-74-369l-8-18-65 2z" class="B"/><g class="E"><path d="M919.5 209.5l-79 3s-3.606 27 0 27c1 0 83 7 82-5s-3-25-3-25zM511 400a113.011 113.011 0 01-63.93 101.82c-.01 0-.01 0-.02.01a110.036 110.036 0 01-10.54 4.43l-1.74.6-3.65 1.2q-3.795 1.17-7.7 2.07h-.01l-.07.02-.16.03-1.04.23q-2.9.645-5.88 1.1A112.114 112.114 0 01398 513c-3.28 0-6.54-.14-9.75-.42a4.556 4.556 0 01-.52-.05 113.435 113.435 0 01-25.86-5.43l-3.7-1.33A113.009 113.009 0 11511 400z"/><path d="M384.574 401.268s26.504-11.55 38.953.65-33.33 8.184-38.953-.65z"/></g><path d="M430.34 346.497c-8.907-15.05-26.528-15.75-26.528-15.75s-17.17-2.196-28.186 20.725c-10.267 21.364-24.437 41.992-2.28 46.993l4.002-12.456 2.478 13.383a86.686 86.686 0 009.48.162c23.727-.766 46.323.224 45.595-8.3-.967-11.318 4-30.285-4.56-44.766zm4.43 160.373l1.74-.6-.13-.18-1.6-.1-57.83-3.12-2.1 7.74a109.529 109.529 0 0012.9 1.92 4.573 4.573 0 00.52.05l9.75.42a112.118 112.118 0 0018.26-1.48q2.97-.465 5.88-1.1l1.04-.23.16-.03.07-.02h.01q3.9-.9 7.7-2.07l3.65-1.2z" class="B"/><path d="M388.99 379.18s4.016 26.504-4.016 29.717 16.063 16.866 16.063 16.866h13.654l8.835-18.472s-8.03-14.457-3.213-28.1-31.323 0-31.323 0z" class="D"/><path d="M434.77 506.87V412.9s-1.02-9.65-9.1-7.14a15.238 15.238 0 00-2.4 1 27.739 27.739 0 00-3.82 2.49l-1.42 1.14c-.04.03-.08.07-.12.1-15.26 12.85-22.48 4.02-24.1 2.4-.6-.58-2.13-2.23-3.86-4.1v-.01l-2.27-2.46-4.3-4.68-8.03 6.42 4 99.6a85.339 85.339 0 008.27 2.18l2.58.5c6.96 1.26 15.72 1.9 21.28-1.08a19.752 19.752 0 013.52-1.47 24.45 24.45 0 017.46-1.03c.54.01 1.07.03 1.6.06h.01a36.073 36.073 0 017.05 1.21l3.65-1.2z" class="E"/><path d="M396.25 503.9a48.912 48.912 0 01-6.05 6.46l-2.05 1.8-.42.35a113.435 113.435 0 01-25.86-5.43l-3.7-1.33a37.334 37.334 0 001.81-6.03c5.53-25.92-10.55-65.26-11.95-71.57-.5-2.27 1.37-5.42 4.38-8.77 6.57-7.3 18.52-15.53 22.93-17.73a16.553 16.553 0 0110.65-.98h.01a19.215 19.215 0 013.27.98v.01c.01.15.12 1.3.3 3.24l.37 3.9 1 10.43 8.47 75.58c.63 2.73-.77 5.9-3.18 9.08zm38.52 2.97l1.74-.6a110.027 110.027 0 0010.54-4.43c-5.14-15.02 10.05-62.77 14.4-77.55v-.02l1.03-3.72c1.6-7.23-22.9-14.05-23.7-15.66-.62-1.22-10.57-2.45-15.26-2.96l-2.4-.25c-1.24.96-2.2 3.72-2.93 7.73a14.82 14.82 0 00-.18 1c-.53 3.1-.94 6.85-1.27 11.06-1.82 22.96-1.2 59.24-2.86 74.18a30.421 30.421 0 00.41 9.25 29.04 29.04 0 00.7 2.93 34.288 34.288 0 001.26 3.7q2.97-.465 5.88-1.1c.35-.07.7-.15 1.04-.23l.16-.03.07-.02h.01q3.9-.9 7.7-2.07l3.65-1.2z" class="C"/><g class="D"><ellipse ry="3.213" rx="1.606" cy="368.339" cx="428.747"/><ellipse ry="3.213" rx="1.606" cy="368.339" cx="381.361"/></g><path d="M434.77 506.87l1.74-.6a110.027 110.027 0 0010.54-4.43.037.037 0 00.01.03.06.06 0 01.01-.04l14.38-77.56.63-4.12c.8-8.03-19.28-8.03-19.28-8.03l-19.38 98.02q3.9-.9 7.7-2.07l3.65-1.2zm-47.04 5.66a113.435 113.435 0 01-25.86-5.43l-1.9-7.36c-7.8-30.65-15.16-63.08-15.16-69.16 0-5.03 3.5-8.66 7.6-11.18a43.088 43.088 0 0112.49-4.88l6.24 26 6.62 27.73 8.33 35.1q.645 2.76 1.28 5.44v.04a.1.1 0 01.01.04q.12.495.24 1l.53 2.3c.04.13.07.26.1.4a4.556 4.556 0 01-.52-.05z" class="C"/><path opacity=".2" d="M369.314 438.213l18.07 70.67s-8.433-61.835-18.07-70.67zm46.946 73.307l5.88-1.14v.03q-2.9.645-5.88 1.1zm23.34-83.24l-16.2 81.85-.07.02-.16.03-1.04.2.45-5.04c1.88-20.43 5.9-55.72 12.18-70.5 1.48-3.48 3.1-5.82 4.83-6.56z"/><circle r="23.291" cy="368.74" cx="405.054" class="D"/><path d="M426.4 345.046l-17.41-9.12-24.04 3.73-4.974 21.97 12.382-.476 3.46-8.07v7.938l5.713-.22 3.316-12.85 2.073 13.68 20.3-.414-.83-16.166z" class="B"/><path d="M226 257a112.991 112.991 0 01-47.1 91.79 111.28 111.28 0 01-12.47 7.8 113.297 113.297 0 01-77.37 10.86 110.597 110.597 0 01-16.42-4.88A113.01 113.01 0 11226 257z" class="E"/><g class="F"><circle r="25.989" cy="223.642" cx="105.873"/><path d="M95.72 243.54s3.25 15.43 3.25 17.055 15.43 8.934 15.43 8.934l13.806-2.436 4.873-14.62s-8.12-12.182-8.12-17.055l-29.237 8.12z"/></g><path d="M113 370a113.063 113.063 0 01-23.94-2.55l-.65-16.7-24.36-70.65 33.85-25.84s8.38 13.65 20.56 9.6a16.804 16.804 0 0011.92-15.7l40.06 14.08-7.3 59.3 3.3 35.08A112.443 112.443 0 01113 370z" class="C"/><path d="M83.336 202.704s8.25-17.878 24.066-13.752 24.754 10.314 25.442 16.503-.344 15.47-.344 15.47-1.72-12.72-12.72-9.97-28.192.688-28.192.688l-2.75 24.754s-3.094-4.47-6.532-1.72-9.97-26.473 1.03-31.974z" class="B"/><path d="M49.07 350.18l5.23-44.1c-.8-17.06 9.75-26 9.75-26h12.18l8.93 30.05-10.55 39.8-1.63 2.44s1.63 2.43.8 3.25c-.8.8-1.62 4.06-1.62 4.06s.17 1.16.47 2.9a111.979 111.979 0 01-23.57-12.39zm149.8-19.73a112.843 112.843 0 01-19.97 18.34 37.727 37.727 0 01-2.78-6.17L155 302l1.62-42.23 13.8 2.44s8.12 8.12 11.37 17.87l6.5 29.23 10.55 21.12.01.01z" class="C"/><path d="M778 192a112.917 112.917 0 01-54.27 96.55l-6.12 3.47a106.38 106.38 0 01-9.55 4.47v.01l-3.13 1.23-1.5.56A113.267 113.267 0 01665 305a113.432 113.432 0 01-25.57-2.9 111.727 111.727 0 01-12.85-3.8h-.01a112.535 112.535 0 01-15.5-6.98q-1.95-1.05-3.84-2.2a112.6 112.6 0 01-2.6-1.59A113.006 113.006 0 11778 192z" class="E"/><g class="D"><path d="M651.974 175.504s.67 17.392-3.345 21.405 20.067 18.06 20.067 18.06l14.047-22.074s-5.35-9.365-4.013-17.392h-26.756z"/><circle r="24.081" cy="161.122" cx="663.68"/></g><path d="M704.5 292.15q.225 2.8.44 5.58l-1.5.56A113.267 113.267 0 01665 305a113.432 113.432 0 01-25.57-2.9 111.727 111.727 0 01-12.85-3.8l-.01.1a.139.139 0 010-.09 27.264 27.264 0 011.14-6.01v-.01l2.2-7.07c.94-2.8 1-8.95.8-14.72l-.05-1.32-.28-5.25-.47-6.14-14.72-39.47 35.55-25.96c2.1 6.8 6.6 6.57 6.6 6.57 19.08 1.3 22.6-11.87 22.7-12.3v-.01l34.15 22.34-14.04 34.1 1.76 18.7 2.6 30.4z" class="C"/><path d="M631.57 264.13l-.7 5.08-.17 1.28-3 21.8-1.13 6-.01.1a.139.139 0 010-.09 112.535 112.535 0 01-15.5-6.98q-1.95-1.05-3.84-2.2a69.566 69.566 0 012.94-7.6l2.67-20.74 17.53 3.13 1.2.2z" class="D"/><path d="M624.883 217.31l-9.7 1.003s-6.355 47.158-4.348 47.158 24.75 5.35 25.42 4.013-11.37-52.175-11.37-52.175z" class="C"/><path d="M645.1 136.438l-4.34-1.58s9.077-9.077 21.705-8.287l-3.552-3.552s8.682-3.157 16.575 5.13c4.15 4.356 8.95 9.477 11.942 15.246h4.65l-1.94 3.88 6.79 3.88-6.97-.697a19.581 19.581 0 01-.659 10.05l-1.578 4.34s-6.314-12.628-6.314-14.207v3.946s-4.34-3.552-4.34-5.92l-2.368 2.762-1.184-4.34-14.6 4.34 2.368-3.552-9.077 1.184 3.552-4.34s-10.26 5.13-10.655 9.47-5.525 9.866-5.525 9.866l-2.368-3.946s-3.552-17.758 7.893-23.678z" class="B"/><path d="M723.73 288.55l-6.12 3.47a106.38 106.38 0 01-9.55 4.47v.01l-3.13 1.23-1.5.56 1.05-6.14-5.36-34.04 2.4-.45 22.36-4.23v27.43s.06 2.97-.15 7.7z" class="D"/><path d="M701.14 207.277l13.044 1.672s15.72 47.827 11.706 49.834-30.1 3.345-30.1 3.345l5.35-54.85z" class="C"/><g fill="#23b5d3"><circle r="33" cy="171" cx="186"/><circle r="33" cy="316" cx="476"/><circle r="33" cy="112" cx="747"/></g><circle r="28.098" cy="68.856" cx="863.956" class="F"/><g class="B"><path d="M885.36 32.93a25.204 25.204 0 00-19.887-10.148h-.944c-18.192 0-32.94 16.46-32.94 36.768h6.096l.984-7.493 1.443 7.493h36.153l3.03-6.34-.757 6.34h7.112q4.978 24.723-14.306 49.446h12.116l6.058-12.68-1.514 12.68h23.095l4.543-29.16c0-21.84-12.69-40.358-30.282-46.905z"/><circle r="18" cy="18" cx="892"/></g></svg>